<svg width="595" height="79" viewBox="0 0 595 79" fill="none" xmlns="http://www.w3.org/2000/svg">
<path d="M252.486 13.3636L255.514 22.5227H255.634L258.656 13.3636H260.974L256.872 25H254.27L250.173 13.3636H252.486ZM264.615 13.3636V25H262.507V13.3636H264.615ZM276.46 13.3636V25H274.585L269.102 17.0739H269.006V25H266.898V13.3636H268.784L274.261 21.2955H274.364V13.3636H276.46ZM292.686 17.2898H290.561C290.5 16.9413 290.389 16.6326 290.226 16.3636C290.063 16.0909 289.86 15.8598 289.618 15.6705C289.375 15.4811 289.099 15.339 288.788 15.2443C288.482 15.1458 288.15 15.0966 287.794 15.0966C287.161 15.0966 286.601 15.2557 286.112 15.5739C285.624 15.8883 285.241 16.3504 284.964 16.9602C284.688 17.5663 284.55 18.3068 284.55 19.1818C284.55 20.072 284.688 20.822 284.964 21.4318C285.245 22.0379 285.627 22.4962 286.112 22.8068C286.601 23.1136 287.16 23.267 287.788 23.267C288.137 23.267 288.463 23.2216 288.766 23.1307C289.072 23.036 289.347 22.8977 289.589 22.7159C289.836 22.5341 290.042 22.3106 290.209 22.0455C290.379 21.7803 290.497 21.4773 290.561 21.1364L292.686 21.1477C292.607 21.7008 292.434 22.2197 292.169 22.7045C291.908 23.1894 291.565 23.6174 291.141 23.9886C290.716 24.3561 290.22 24.6439 289.652 24.8523C289.084 25.0568 288.453 25.1591 287.76 25.1591C286.737 25.1591 285.824 24.9223 285.021 24.4489C284.218 23.9754 283.586 23.2917 283.124 22.3977C282.661 21.5038 282.43 20.4318 282.43 19.1818C282.43 17.928 282.663 16.8561 283.129 15.9659C283.595 15.072 284.23 14.3883 285.033 13.9148C285.836 13.4413 286.745 13.2045 287.76 13.2045C288.408 13.2045 289.01 13.2955 289.567 13.4773C290.124 13.6591 290.62 13.9261 291.055 14.2784C291.491 14.6269 291.849 15.0549 292.129 15.5625C292.413 16.0663 292.599 16.642 292.686 17.2898ZM296.582 19.8864V25H294.526V13.3636H296.537V17.7557H296.639C296.844 17.2633 297.16 16.875 297.588 16.5909C298.02 16.303 298.569 16.1591 299.236 16.1591C299.842 16.1591 300.37 16.286 300.821 16.5398C301.272 16.7936 301.62 17.1648 301.866 17.6534C302.116 18.142 302.241 18.7386 302.241 19.4432V25H300.185V19.7614C300.185 19.1742 300.033 18.7178 299.73 18.392C299.431 18.0625 299.01 17.8977 298.469 17.8977C298.105 17.8977 297.779 17.9773 297.491 18.1364C297.207 18.2917 296.984 18.517 296.821 18.8125C296.662 19.108 296.582 19.4659 296.582 19.8864ZM306.849 25.1761C306.296 25.1761 305.798 25.0777 305.355 24.8807C304.916 24.6799 304.567 24.3845 304.31 23.9943C304.056 23.6042 303.929 23.1231 303.929 22.5511C303.929 22.0587 304.02 21.6515 304.202 21.3295C304.384 21.0076 304.632 20.75 304.946 20.5568C305.26 20.3636 305.615 20.2178 306.009 20.1193C306.406 20.017 306.817 19.9432 307.241 19.8977C307.753 19.8447 308.168 19.7973 308.486 19.7557C308.804 19.7102 309.035 19.642 309.179 19.5511C309.327 19.4564 309.401 19.3106 309.401 19.1136V19.0795C309.401 18.6515 309.274 18.3201 309.02 18.0852C308.766 17.8504 308.401 17.733 307.923 17.733C307.42 17.733 307.02 17.8428 306.724 18.0625C306.433 18.2822 306.236 18.5417 306.134 18.8409L304.213 18.5682C304.365 18.0379 304.615 17.5947 304.963 17.2386C305.312 16.8788 305.738 16.6098 306.241 16.4318C306.745 16.25 307.302 16.1591 307.912 16.1591C308.332 16.1591 308.751 16.2083 309.168 16.3068C309.584 16.4053 309.965 16.5682 310.31 16.7955C310.654 17.0189 310.931 17.3239 311.139 17.7102C311.351 18.0966 311.457 18.5795 311.457 19.1591V25H309.48V23.8011H309.412C309.287 24.0436 309.111 24.2708 308.884 24.483C308.66 24.6913 308.378 24.8598 308.037 24.9886C307.7 25.1136 307.304 25.1761 306.849 25.1761ZM307.384 23.6648C307.796 23.6648 308.154 23.5833 308.457 23.4205C308.76 23.2538 308.993 23.0341 309.156 22.7614C309.323 22.4886 309.406 22.1913 309.406 21.8693V20.8409C309.342 20.8939 309.232 20.9432 309.077 20.9886C308.925 21.0341 308.755 21.0739 308.565 21.108C308.376 21.142 308.188 21.1723 308.003 21.1989C307.817 21.2254 307.656 21.2481 307.52 21.267C307.213 21.3087 306.938 21.3769 306.696 21.4716C306.454 21.5663 306.262 21.6989 306.122 21.8693C305.982 22.036 305.912 22.2519 305.912 22.517C305.912 22.8958 306.05 23.1818 306.327 23.375C306.603 23.5682 306.955 23.6648 307.384 23.6648ZM313.526 25V16.2727H315.52V17.7273H315.611C315.77 17.2235 316.043 16.8352 316.429 16.5625C316.819 16.286 317.264 16.1477 317.764 16.1477C317.878 16.1477 318.005 16.1534 318.145 16.1648C318.289 16.1723 318.408 16.1856 318.503 16.2045V18.0966C318.416 18.0663 318.277 18.0398 318.088 18.017C317.902 17.9905 317.723 17.9773 317.548 17.9773C317.173 17.9773 316.836 18.0587 316.537 18.2216C316.241 18.3807 316.009 18.6023 315.838 18.8864C315.668 19.1705 315.582 19.4981 315.582 19.8693V25H313.526ZM321.926 13.3636V25H319.869V13.3636H321.926ZM327.905 25.1705C327.03 25.1705 326.274 24.9886 325.638 24.625C325.005 24.2576 324.518 23.7386 324.178 23.0682C323.837 22.3939 323.666 21.6004 323.666 20.6875C323.666 19.7898 323.837 19.0019 324.178 18.3239C324.522 17.642 325.003 17.1117 325.621 16.733C326.238 16.3504 326.964 16.1591 327.797 16.1591C328.335 16.1591 328.842 16.2462 329.32 16.4205C329.801 16.5909 330.225 16.8561 330.592 17.2159C330.964 17.5758 331.255 18.0341 331.467 18.5909C331.679 19.1439 331.786 19.803 331.786 20.5682V21.1989H324.632V19.8125H329.814C329.81 19.4186 329.725 19.0682 329.558 18.7614C329.392 18.4508 329.159 18.2064 328.859 18.0284C328.564 17.8504 328.219 17.7614 327.825 17.7614C327.405 17.7614 327.036 17.8636 326.717 18.0682C326.399 18.2689 326.151 18.5341 325.973 18.8636C325.799 19.1894 325.71 19.5473 325.706 19.9375V21.1477C325.706 21.6553 325.799 22.0909 325.984 22.4545C326.17 22.8144 326.429 23.0909 326.763 23.2841C327.096 23.4735 327.486 23.5682 327.933 23.5682C328.232 23.5682 328.503 23.5265 328.746 23.4432C328.988 23.3561 329.198 23.2292 329.376 23.0625C329.554 22.8958 329.689 22.6894 329.78 22.4432L331.7 22.6591C331.579 23.1667 331.348 23.6098 331.007 23.9886C330.67 24.3636 330.238 24.6553 329.712 24.8636C329.185 25.0682 328.583 25.1705 327.905 25.1705ZM340.423 18.5795L338.548 18.7841C338.495 18.5947 338.402 18.4167 338.27 18.25C338.141 18.0833 337.967 17.9489 337.747 17.8466C337.527 17.7443 337.259 17.6932 336.94 17.6932C336.512 17.6932 336.152 17.786 335.861 17.9716C335.573 18.1572 335.431 18.3977 335.435 18.6932C335.431 18.947 335.524 19.1534 335.713 19.3125C335.906 19.4716 336.224 19.6023 336.668 19.7045L338.156 20.0227C338.982 20.2008 339.596 20.483 339.997 20.8693C340.402 21.2557 340.607 21.7614 340.611 22.3864C340.607 22.9356 340.446 23.4205 340.128 23.8409C339.813 24.2576 339.376 24.5833 338.815 24.8182C338.255 25.053 337.611 25.1705 336.884 25.1705C335.815 25.1705 334.955 24.947 334.304 24.5C333.652 24.0492 333.264 23.4223 333.139 22.6193L335.145 22.4261C335.236 22.8201 335.429 23.1174 335.724 23.3182C336.02 23.5189 336.404 23.6193 336.878 23.6193C337.366 23.6193 337.759 23.5189 338.054 23.3182C338.353 23.1174 338.503 22.8693 338.503 22.5739C338.503 22.3239 338.406 22.1174 338.213 21.9545C338.024 21.7917 337.728 21.6667 337.327 21.5795L335.838 21.267C335.001 21.0928 334.382 20.7992 333.98 20.3864C333.579 19.9697 333.38 19.4432 333.384 18.8068C333.38 18.2689 333.526 17.803 333.821 17.4091C334.12 17.0114 334.535 16.7045 335.065 16.4886C335.599 16.2689 336.215 16.1591 336.912 16.1591C337.935 16.1591 338.74 16.3769 339.327 16.8125C339.918 17.2481 340.283 17.8371 340.423 18.5795ZM111.703 40H108.746V31.2727H111.763C112.629 31.2727 113.373 31.4474 113.996 31.7969C114.621 32.1435 115.101 32.642 115.436 33.2926C115.771 33.9432 115.939 34.7216 115.939 35.6278C115.939 36.5369 115.77 37.3182 115.432 37.9716C115.096 38.625 114.612 39.1264 113.979 39.4759C113.348 39.8253 112.589 40 111.703 40ZM110.327 38.6321H111.626C112.234 38.6321 112.741 38.5213 113.148 38.2997C113.554 38.0753 113.859 37.7415 114.064 37.2983C114.268 36.8523 114.371 36.2955 114.371 35.6278C114.371 34.9602 114.268 34.4062 114.064 33.9659C113.859 33.5227 113.557 33.1918 113.156 32.973C112.758 32.7514 112.264 32.6406 111.673 32.6406H110.327V38.6321ZM120.27 40.1278C119.614 40.1278 119.047 39.9915 118.57 39.7188C118.096 39.4432 117.731 39.054 117.475 38.5511C117.219 38.0455 117.091 37.4503 117.091 36.7656C117.091 36.0923 117.219 35.5014 117.475 34.9929C117.733 34.4815 118.094 34.0838 118.557 33.7997C119.02 33.5128 119.564 33.3693 120.189 33.3693C120.593 33.3693 120.974 33.4347 121.331 33.5653C121.692 33.6932 122.01 33.892 122.286 34.1619C122.564 34.4318 122.783 34.7756 122.942 35.1932C123.101 35.608 123.181 36.1023 123.181 36.6761V37.1491H117.816V36.1094H121.702C121.699 35.8139 121.635 35.5511 121.51 35.321C121.385 35.0881 121.211 34.9048 120.986 34.7713C120.765 34.6378 120.506 34.571 120.211 34.571C119.895 34.571 119.618 34.6477 119.38 34.8011C119.141 34.9517 118.955 35.1506 118.822 35.3977C118.691 35.642 118.624 35.9105 118.621 36.2031V37.1108C118.621 37.4915 118.691 37.8182 118.83 38.0909C118.969 38.3608 119.164 38.5682 119.414 38.7131C119.664 38.8551 119.956 38.9261 120.292 38.9261C120.516 38.9261 120.719 38.8949 120.901 38.8324C121.083 38.767 121.241 38.6719 121.374 38.5469C121.508 38.4219 121.608 38.267 121.677 38.0824L123.117 38.2443C123.026 38.625 122.853 38.9574 122.597 39.2415C122.344 39.5227 122.02 39.7415 121.626 39.8977C121.231 40.0511 120.779 40.1278 120.27 40.1278ZM130.145 33.4545L127.814 40H126.11L123.779 33.4545H125.423L126.928 38.3168H126.996L128.504 33.4545H130.145ZM133.888 40.1278C133.231 40.1278 132.665 39.9915 132.187 39.7188C131.713 39.4432 131.348 39.054 131.092 38.5511C130.836 38.0455 130.709 37.4503 130.709 36.7656C130.709 36.0923 130.836 35.5014 131.092 34.9929C131.351 34.4815 131.711 34.0838 132.175 33.7997C132.638 33.5128 133.182 33.3693 133.807 33.3693C134.21 33.3693 134.591 33.4347 134.949 33.5653C135.309 33.6932 135.628 33.892 135.903 34.1619C136.182 34.4318 136.4 34.7756 136.559 35.1932C136.719 35.608 136.798 36.1023 136.798 36.6761V37.1491H131.433V36.1094H135.319C135.317 35.8139 135.253 35.5511 135.128 35.321C135.003 35.0881 134.828 34.9048 134.604 34.7713C134.382 34.6378 134.123 34.571 133.828 34.571C133.513 34.571 133.236 34.6477 132.997 34.8011C132.758 34.9517 132.572 35.1506 132.439 35.3977C132.308 35.642 132.241 35.9105 132.238 36.2031V37.1108C132.238 37.4915 132.308 37.8182 132.447 38.0909C132.586 38.3608 132.781 38.5682 133.031 38.7131C133.281 38.8551 133.574 38.9261 133.909 38.9261C134.133 38.9261 134.336 38.8949 134.518 38.8324C134.7 38.767 134.858 38.6719 134.991 38.5469C135.125 38.4219 135.226 38.267 135.294 38.0824L136.734 38.2443C136.643 38.625 136.47 38.9574 136.214 39.2415C135.961 39.5227 135.638 39.7415 135.243 39.8977C134.848 40.0511 134.396 40.1278 133.888 40.1278ZM139.646 31.2727V40H138.103V31.2727H139.646ZM144.087 40.1278C143.448 40.1278 142.894 39.9872 142.425 39.706C141.956 39.4247 141.593 39.0312 141.334 38.5256C141.079 38.0199 140.951 37.429 140.951 36.7528C140.951 36.0767 141.079 35.4844 141.334 34.9759C141.593 34.4673 141.956 34.0724 142.425 33.7912C142.894 33.5099 143.448 33.3693 144.087 33.3693C144.726 33.3693 145.28 33.5099 145.749 33.7912C146.218 34.0724 146.58 34.4673 146.836 34.9759C147.094 35.4844 147.224 36.0767 147.224 36.7528C147.224 37.429 147.094 38.0199 146.836 38.5256C146.58 39.0312 146.218 39.4247 145.749 39.706C145.28 39.9872 144.726 40.1278 144.087 40.1278ZM144.096 38.892C144.442 38.892 144.732 38.7969 144.965 38.6065C145.198 38.4134 145.371 38.1548 145.485 37.831C145.601 37.5071 145.66 37.1463 145.66 36.7486C145.66 36.348 145.601 35.9858 145.485 35.6619C145.371 35.3352 145.198 35.0753 144.965 34.8821C144.732 34.6889 144.442 34.5923 144.096 34.5923C143.741 34.5923 143.445 34.6889 143.209 34.8821C142.976 35.0753 142.802 35.3352 142.685 35.6619C142.572 35.9858 142.515 36.348 142.515 36.7486C142.515 37.1463 142.572 37.5071 142.685 37.831C142.802 38.1548 142.976 38.4134 143.209 38.6065C143.445 38.7969 143.741 38.892 144.096 38.892ZM148.533 42.4545V33.4545H150.05V34.5369H150.139C150.219 34.3778 150.331 34.2088 150.476 34.0298C150.621 33.848 150.817 33.6932 151.064 33.5653C151.311 33.4347 151.627 33.3693 152.01 33.3693C152.516 33.3693 152.972 33.4986 153.378 33.7571C153.787 34.0128 154.111 34.392 154.35 34.8949C154.591 35.3949 154.712 36.0085 154.712 36.7358C154.712 37.4545 154.594 38.0653 154.358 38.5682C154.122 39.071 153.801 39.4545 153.395 39.7188C152.989 39.983 152.529 40.1151 152.014 40.1151C151.639 40.1151 151.328 40.0526 151.081 39.9276C150.834 39.8026 150.635 39.652 150.485 39.4759C150.337 39.2969 150.222 39.1278 150.139 38.9688H150.075V42.4545H148.533ZM150.046 36.7273C150.046 37.1506 150.105 37.5213 150.225 37.8395C150.347 38.1577 150.521 38.4062 150.749 38.5852C150.979 38.7614 151.257 38.8494 151.584 38.8494C151.925 38.8494 152.21 38.7585 152.441 38.5767C152.671 38.392 152.844 38.1406 152.96 37.8224C153.08 37.5014 153.139 37.1364 153.139 36.7273C153.139 36.321 153.081 35.9602 152.965 35.6449C152.848 35.3295 152.675 35.0824 152.445 34.9034C152.215 34.7244 151.928 34.6349 151.584 34.6349C151.254 34.6349 150.975 34.7216 150.744 34.8949C150.514 35.0682 150.34 35.3111 150.22 35.6236C150.104 35.9361 150.046 36.304 150.046 36.7273ZM156.033 40V33.4545H157.575V40H156.033ZM156.808 32.5256C156.564 32.5256 156.354 32.4446 156.178 32.2827C156.002 32.1179 155.914 31.9205 155.914 31.6903C155.914 31.4574 156.002 31.2599 156.178 31.098C156.354 30.9332 156.564 30.8509 156.808 30.8509C157.056 30.8509 157.266 30.9332 157.439 31.098C157.615 31.2599 157.703 31.4574 157.703 31.6903C157.703 31.9205 157.615 32.1179 157.439 32.2827C157.266 32.4446 157.056 32.5256 156.808 32.5256ZM160.704 36.1648V40H159.162V33.4545H160.636V34.5668H160.713C160.863 34.2003 161.104 33.9091 161.433 33.6932C161.765 33.4773 162.176 33.3693 162.665 33.3693C163.116 33.3693 163.51 33.4659 163.845 33.6591C164.183 33.8523 164.444 34.1321 164.629 34.4986C164.817 34.8651 164.909 35.3097 164.906 35.8324V40H163.363V36.071C163.363 35.6335 163.25 35.2912 163.023 35.044C162.798 34.7969 162.487 34.6733 162.089 34.6733C161.819 34.6733 161.579 34.733 161.369 34.8523C161.162 34.9687 160.998 35.1378 160.879 35.3594C160.763 35.581 160.704 35.8494 160.704 36.1648ZM169.321 42.5909C168.767 42.5909 168.291 42.5156 167.893 42.3651C167.496 42.2173 167.176 42.0185 166.934 41.7685C166.693 41.5185 166.525 41.2415 166.432 40.9375L167.821 40.6009C167.883 40.7287 167.974 40.8551 168.094 40.9801C168.213 41.108 168.373 41.2131 168.575 41.2955C168.78 41.3807 169.037 41.4233 169.346 41.4233C169.784 41.4233 170.146 41.3168 170.433 41.1037C170.72 40.8935 170.863 40.5469 170.863 40.0639V38.8239H170.787C170.707 38.983 170.591 39.1463 170.437 39.3139C170.287 39.4815 170.086 39.6222 169.836 39.7358C169.589 39.8494 169.278 39.9062 168.903 39.9062C168.4 39.9062 167.944 39.7884 167.535 39.5526C167.129 39.3139 166.805 38.9588 166.564 38.4872C166.325 38.0128 166.206 37.419 166.206 36.706C166.206 35.9872 166.325 35.3807 166.564 34.8864C166.805 34.3892 167.131 34.0128 167.54 33.7571C167.949 33.4986 168.405 33.3693 168.907 33.3693C169.291 33.3693 169.606 33.4347 169.854 33.5653C170.104 33.6932 170.302 33.848 170.45 34.0298C170.598 34.2088 170.71 34.3778 170.787 34.5369H170.872V33.4545H172.393V40.1065C172.393 40.6662 172.26 41.1293 171.993 41.4957C171.726 41.8622 171.361 42.1364 170.898 42.3182C170.434 42.5 169.909 42.5909 169.321 42.5909ZM169.334 38.696C169.66 38.696 169.939 38.6165 170.169 38.4574C170.399 38.2983 170.574 38.0696 170.693 37.7713C170.812 37.473 170.872 37.1151 170.872 36.6974C170.872 36.2855 170.812 35.9247 170.693 35.6151C170.577 35.3054 170.403 35.0653 170.173 34.8949C169.946 34.7216 169.666 34.6349 169.334 34.6349C168.99 34.6349 168.703 34.7244 168.473 34.9034C168.243 35.0824 168.069 35.3281 167.953 35.6406C167.836 35.9503 167.778 36.3026 167.778 36.6974C167.778 37.098 167.836 37.4489 167.953 37.75C168.072 38.0483 168.247 38.2812 168.477 38.4489C168.71 38.6136 168.996 38.696 169.334 38.696ZM178.834 40.1321C178.42 40.1321 178.046 40.0582 177.714 39.9105C177.384 39.7599 177.123 39.5384 176.93 39.2457C176.739 38.9531 176.644 38.5923 176.644 38.1634C176.644 37.794 176.712 37.4886 176.849 37.2472C176.985 37.0057 177.171 36.8125 177.407 36.6676C177.643 36.5227 177.908 36.4134 178.204 36.3395C178.502 36.2628 178.81 36.2074 179.128 36.1733C179.512 36.1335 179.823 36.098 180.062 36.0668C180.3 36.0327 180.474 35.9815 180.581 35.9134C180.692 35.8423 180.748 35.733 180.748 35.5852V35.5597C180.748 35.2386 180.653 34.9901 180.462 34.8139C180.272 34.6378 179.998 34.5497 179.64 34.5497C179.262 34.5497 178.962 34.6321 178.741 34.7969C178.522 34.9616 178.374 35.1562 178.297 35.3807L176.857 35.1761C176.971 34.7784 177.158 34.446 177.42 34.179C177.681 33.9091 178.001 33.7074 178.378 33.5739C178.756 33.4375 179.174 33.3693 179.631 33.3693C179.947 33.3693 180.26 33.4062 180.573 33.4801C180.885 33.554 181.171 33.6761 181.43 33.8466C181.688 34.0142 181.895 34.2429 182.052 34.5327C182.211 34.8224 182.29 35.1847 182.29 35.6193V40H180.807V39.1009H180.756C180.662 39.2827 180.53 39.4531 180.36 39.6122C180.192 39.7685 179.981 39.8949 179.725 39.9915C179.472 40.0852 179.175 40.1321 178.834 40.1321ZM179.235 38.9986C179.545 38.9986 179.813 38.9375 180.04 38.8153C180.268 38.6903 180.442 38.5256 180.564 38.321C180.689 38.1165 180.752 37.8935 180.752 37.652V36.8807C180.704 36.9205 180.621 36.9574 180.505 36.9915C180.391 37.0256 180.263 37.0554 180.121 37.081C179.979 37.1065 179.839 37.1293 179.699 37.1491C179.56 37.169 179.439 37.1861 179.337 37.2003C179.107 37.2315 178.901 37.2827 178.719 37.3537C178.537 37.4247 178.394 37.5241 178.289 37.652C178.184 37.777 178.131 37.9389 178.131 38.1378C178.131 38.4219 178.235 38.6364 178.442 38.7812C178.65 38.9261 178.914 38.9986 179.235 38.9986ZM185.384 36.1648V40H183.841V33.4545H185.316V34.5668H185.393C185.543 34.2003 185.783 33.9091 186.113 33.6932C186.445 33.4773 186.856 33.3693 187.344 33.3693C187.796 33.3693 188.189 33.4659 188.525 33.6591C188.863 33.8523 189.124 34.1321 189.309 34.4986C189.496 34.8651 189.589 35.3097 189.586 35.8324V40H188.043V36.071C188.043 35.6335 187.93 35.2912 187.702 35.044C187.478 34.7969 187.167 34.6733 186.769 34.6733C186.499 34.6733 186.259 34.733 186.049 34.8523C185.841 34.9687 185.678 35.1378 185.559 35.3594C185.442 35.581 185.384 35.8494 185.384 36.1648ZM194.131 40V33.4545H195.673V40H194.131ZM194.906 32.5256C194.662 32.5256 194.452 32.4446 194.275 32.2827C194.099 32.1179 194.011 31.9205 194.011 31.6903C194.011 31.4574 194.099 31.2599 194.275 31.098C194.452 30.9332 194.662 30.8509 194.906 30.8509C195.153 30.8509 195.363 30.9332 195.537 31.098C195.713 31.2599 195.801 31.4574 195.801 31.6903C195.801 31.9205 195.713 32.1179 195.537 32.2827C195.363 32.4446 195.153 32.5256 194.906 32.5256ZM198.802 36.1648V40H197.259V33.4545H198.734V34.5668H198.811C198.961 34.2003 199.201 33.9091 199.531 33.6932C199.863 33.4773 200.274 33.3693 200.762 33.3693C201.214 33.3693 201.607 33.4659 201.943 33.6591C202.281 33.8523 202.542 34.1321 202.727 34.4986C202.914 34.8651 203.007 35.3097 203.004 35.8324V40H201.461V36.071C201.461 35.6335 201.347 35.2912 201.12 35.044C200.896 34.7969 200.585 34.6733 200.187 34.6733C199.917 34.6733 199.677 34.733 199.467 34.8523C199.259 34.9687 199.096 35.1378 198.977 35.3594C198.86 35.581 198.802 35.8494 198.802 36.1648ZM207.84 33.4545V34.6477H204.078V33.4545H207.84ZM205.007 31.8864H206.549V38.0312C206.549 38.2386 206.58 38.3977 206.643 38.5085C206.708 38.6165 206.794 38.6903 206.899 38.7301C207.004 38.7699 207.12 38.7898 207.248 38.7898C207.345 38.7898 207.433 38.7827 207.512 38.7685C207.595 38.7543 207.657 38.7415 207.7 38.7301L207.96 39.9361C207.877 39.9645 207.759 39.9957 207.606 40.0298C207.455 40.0639 207.271 40.0838 207.052 40.0895C206.666 40.1009 206.318 40.0426 206.008 39.9148C205.698 39.7841 205.453 39.5824 205.271 39.3097C205.092 39.0369 205.004 38.696 205.007 38.2869V31.8864ZM211.958 40.1278C211.302 40.1278 210.735 39.9915 210.258 39.7188C209.783 39.4432 209.418 39.054 209.162 38.5511C208.907 38.0455 208.779 37.4503 208.779 36.7656C208.779 36.0923 208.907 35.5014 209.162 34.9929C209.421 34.4815 209.782 34.0838 210.245 33.7997C210.708 33.5128 211.252 33.3693 211.877 33.3693C212.28 33.3693 212.661 33.4347 213.019 33.5653C213.38 33.6932 213.698 33.892 213.974 34.1619C214.252 34.4318 214.471 34.7756 214.63 35.1932C214.789 35.608 214.868 36.1023 214.868 36.6761V37.1491H209.503V36.1094H213.39C213.387 35.8139 213.323 35.5511 213.198 35.321C213.073 35.0881 212.898 34.9048 212.674 34.7713C212.452 34.6378 212.194 34.571 211.898 34.571C211.583 34.571 211.306 34.6477 211.067 34.8011C210.829 34.9517 210.643 35.1506 210.509 35.3977C210.378 35.642 210.312 35.9105 210.309 36.2031V37.1108C210.309 37.4915 210.378 37.8182 210.518 38.0909C210.657 38.3608 210.851 38.5682 211.101 38.7131C211.351 38.8551 211.644 38.9261 211.979 38.9261C212.204 38.9261 212.407 38.8949 212.589 38.8324C212.77 38.767 212.928 38.6719 213.062 38.5469C213.195 38.4219 213.296 38.267 213.364 38.0824L214.805 38.2443C214.714 38.625 214.54 38.9574 214.285 39.2415C214.032 39.5227 213.708 39.7415 213.313 39.8977C212.918 40.0511 212.466 40.1278 211.958 40.1278ZM217.716 31.2727V40H216.173V31.2727H217.716ZM220.845 31.2727V40H219.302V31.2727H220.845ZM222.431 40V33.4545H223.974V40H222.431ZM223.207 32.5256C222.963 32.5256 222.752 32.4446 222.576 32.2827C222.4 32.1179 222.312 31.9205 222.312 31.6903C222.312 31.4574 222.4 31.2599 222.576 31.098C222.752 30.9332 222.963 30.8509 223.207 30.8509C223.454 30.8509 223.664 30.9332 223.838 31.098C224.014 31.2599 224.102 31.4574 224.102 31.6903C224.102 31.9205 224.014 32.1179 223.838 32.2827C223.664 32.4446 223.454 32.5256 223.207 32.5256ZM228.407 42.5909C227.853 42.5909 227.377 42.5156 226.979 42.3651C226.581 42.2173 226.262 42.0185 226.02 41.7685C225.779 41.5185 225.611 41.2415 225.518 40.9375L226.907 40.6009C226.969 40.7287 227.06 40.8551 227.18 40.9801C227.299 41.108 227.459 41.2131 227.661 41.2955C227.866 41.3807 228.123 41.4233 228.432 41.4233C228.87 41.4233 229.232 41.3168 229.519 41.1037C229.806 40.8935 229.949 40.5469 229.949 40.0639V38.8239H229.873C229.793 38.983 229.677 39.1463 229.523 39.3139C229.373 39.4815 229.172 39.6222 228.922 39.7358C228.675 39.8494 228.364 39.9062 227.989 39.9062C227.486 39.9062 227.03 39.7884 226.621 39.5526C226.215 39.3139 225.891 38.9588 225.65 38.4872C225.411 38.0128 225.292 37.419 225.292 36.706C225.292 35.9872 225.411 35.3807 225.65 34.8864C225.891 34.3892 226.216 34.0128 226.626 33.7571C227.035 33.4986 227.491 33.3693 227.993 33.3693C228.377 33.3693 228.692 33.4347 228.939 33.5653C229.189 33.6932 229.388 33.848 229.536 34.0298C229.684 34.2088 229.796 34.3778 229.873 34.5369H229.958V33.4545H231.479V40.1065C231.479 40.6662 231.346 41.1293 231.079 41.4957C230.812 41.8622 230.447 42.1364 229.983 42.3182C229.52 42.5 228.995 42.5909 228.407 42.5909ZM228.42 38.696C228.746 38.696 229.025 38.6165 229.255 38.4574C229.485 38.2983 229.66 38.0696 229.779 37.7713C229.898 37.473 229.958 37.1151 229.958 36.6974C229.958 36.2855 229.898 35.9247 229.779 35.6151C229.662 35.3054 229.489 35.0653 229.259 34.8949C229.032 34.7216 228.752 34.6349 228.42 34.6349C228.076 34.6349 227.789 34.7244 227.559 34.9034C227.329 35.0824 227.155 35.3281 227.039 35.6406C226.922 35.9503 226.864 36.3026 226.864 36.6974C226.864 37.098 226.922 37.4489 227.039 37.75C227.158 38.0483 227.333 38.2812 227.563 38.4489C227.796 38.6136 228.081 38.696 228.42 38.696ZM235.958 40.1278C235.302 40.1278 234.735 39.9915 234.258 39.7188C233.783 39.4432 233.418 39.054 233.162 38.5511C232.907 38.0455 232.779 37.4503 232.779 36.7656C232.779 36.0923 232.907 35.5014 233.162 34.9929C233.421 34.4815 233.782 34.0838 234.245 33.7997C234.708 33.5128 235.252 33.3693 235.877 33.3693C236.28 33.3693 236.661 33.4347 237.019 33.5653C237.38 33.6932 237.698 33.892 237.974 34.1619C238.252 34.4318 238.471 34.7756 238.63 35.1932C238.789 35.608 238.868 36.1023 238.868 36.6761V37.1491H233.503V36.1094H237.39C237.387 35.8139 237.323 35.5511 237.198 35.321C237.073 35.0881 236.898 34.9048 236.674 34.7713C236.452 34.6378 236.194 34.571 235.898 34.571C235.583 34.571 235.306 34.6477 235.067 34.8011C234.829 34.9517 234.643 35.1506 234.509 35.3977C234.378 35.642 234.312 35.9105 234.309 36.2031V37.1108C234.309 37.4915 234.378 37.8182 234.518 38.0909C234.657 38.3608 234.851 38.5682 235.101 38.7131C235.351 38.8551 235.644 38.9261 235.979 38.9261C236.204 38.9261 236.407 38.8949 236.589 38.8324C236.77 38.767 236.928 38.6719 237.062 38.5469C237.195 38.4219 237.296 38.267 237.364 38.0824L238.805 38.2443C238.714 38.625 238.54 38.9574 238.285 39.2415C238.032 39.5227 237.708 39.7415 237.313 39.8977C236.918 40.0511 236.466 40.1278 235.958 40.1278ZM241.716 36.1648V40H240.173V33.4545H241.648V34.5668H241.725C241.875 34.2003 242.115 33.9091 242.445 33.6932C242.777 33.4773 243.188 33.3693 243.676 33.3693C244.128 33.3693 244.521 33.4659 244.857 33.6591C245.195 33.8523 245.456 34.1321 245.641 34.4986C245.828 34.8651 245.921 35.3097 245.918 35.8324V40H244.375V36.071C244.375 35.6335 244.262 35.2912 244.034 35.044C243.81 34.7969 243.499 34.6733 243.101 34.6733C242.831 34.6733 242.591 34.733 242.381 34.8523C242.173 34.9687 242.01 35.1378 241.891 35.3594C241.774 35.581 241.716 35.8494 241.716 36.1648ZM250.754 33.4545V34.6477H246.992V33.4545H250.754ZM247.921 31.8864H249.463V38.0312C249.463 38.2386 249.494 38.3977 249.557 38.5085C249.622 38.6165 249.708 38.6903 249.813 38.7301C249.918 38.7699 250.034 38.7898 250.162 38.7898C250.259 38.7898 250.347 38.7827 250.426 38.7685C250.509 38.7543 250.571 38.7415 250.614 38.7301L250.874 39.9361C250.791 39.9645 250.673 39.9957 250.52 40.0298C250.369 40.0639 250.185 40.0838 249.966 40.0895C249.58 40.1009 249.232 40.0426 248.922 39.9148C248.612 39.7841 248.367 39.5824 248.185 39.3097C248.006 39.0369 247.918 38.696 247.921 38.2869V31.8864ZM255.021 42.4545V33.4545H256.538V34.5369H256.628C256.707 34.3778 256.819 34.2088 256.964 34.0298C257.109 33.848 257.305 33.6932 257.552 33.5653C257.8 33.4347 258.115 33.3693 258.498 33.3693C259.004 33.3693 259.46 33.4986 259.866 33.7571C260.275 34.0128 260.599 34.392 260.838 34.8949C261.079 35.3949 261.2 36.0085 261.2 36.7358C261.2 37.4545 261.082 38.0653 260.846 38.5682C260.611 39.071 260.29 39.4545 259.883 39.7188C259.477 39.983 259.017 40.1151 258.503 40.1151C258.128 40.1151 257.817 40.0526 257.569 39.9276C257.322 39.8026 257.123 39.652 256.973 39.4759C256.825 39.2969 256.71 39.1278 256.628 38.9688H256.564V42.4545H255.021ZM256.534 36.7273C256.534 37.1506 256.594 37.5213 256.713 37.8395C256.835 38.1577 257.01 38.4062 257.237 38.5852C257.467 38.7614 257.746 38.8494 258.072 38.8494C258.413 38.8494 258.699 38.7585 258.929 38.5767C259.159 38.392 259.332 38.1406 259.449 37.8224C259.568 37.5014 259.628 37.1364 259.628 36.7273C259.628 36.321 259.569 35.9602 259.453 35.6449C259.336 35.3295 259.163 35.0824 258.933 34.9034C258.703 34.7244 258.416 34.6349 258.072 34.6349C257.743 34.6349 257.463 34.7216 257.233 34.8949C257.003 35.0682 256.828 35.3111 256.709 35.6236C256.592 35.9361 256.534 36.304 256.534 36.7273ZM262.521 40V33.4545H264.017V34.5455H264.085C264.204 34.1676 264.409 33.8764 264.699 33.6719C264.991 33.4645 265.325 33.3608 265.7 33.3608C265.785 33.3608 265.881 33.3651 265.986 33.3736C266.094 33.3793 266.183 33.3892 266.254 33.4034V34.8224C266.189 34.7997 266.085 34.7798 265.943 34.7628C265.804 34.7429 265.669 34.733 265.538 34.733C265.257 34.733 265.004 34.794 264.78 34.9162C264.558 35.0355 264.383 35.2017 264.256 35.4148C264.128 35.6278 264.064 35.8736 264.064 36.152V40H262.521ZM269.907 40.1278C269.251 40.1278 268.684 39.9915 268.207 39.7188C267.732 39.4432 267.367 39.054 267.112 38.5511C266.856 38.0455 266.728 37.4503 266.728 36.7656C266.728 36.0923 266.856 35.5014 267.112 34.9929C267.37 34.4815 267.731 34.0838 268.194 33.7997C268.657 33.5128 269.201 33.3693 269.826 33.3693C270.23 33.3693 270.61 33.4347 270.968 33.5653C271.329 33.6932 271.647 33.892 271.923 34.1619C272.201 34.4318 272.42 34.7756 272.579 35.1932C272.738 35.608 272.818 36.1023 272.818 36.6761V37.1491H267.453V36.1094H271.339C271.336 35.8139 271.272 35.5511 271.147 35.321C271.022 35.0881 270.847 34.9048 270.623 34.7713C270.401 34.6378 270.143 34.571 269.847 34.571C269.532 34.571 269.255 34.6477 269.017 34.8011C268.778 34.9517 268.592 35.1506 268.458 35.3977C268.328 35.642 268.261 35.9105 268.258 36.2031V37.1108C268.258 37.4915 268.328 37.8182 268.467 38.0909C268.606 38.3608 268.801 38.5682 269.051 38.7131C269.301 38.8551 269.593 38.9261 269.928 38.9261C270.153 38.9261 270.356 38.8949 270.538 38.8324C270.72 38.767 270.877 38.6719 271.011 38.5469C271.144 38.4219 271.245 38.267 271.313 38.0824L272.754 38.2443C272.663 38.625 272.49 38.9574 272.234 39.2415C271.981 39.5227 271.657 39.7415 271.262 39.8977C270.867 40.0511 270.416 40.1278 269.907 40.1278ZM276.552 40.1151C276.037 40.1151 275.577 39.983 275.171 39.7188C274.765 39.4545 274.444 39.071 274.208 38.5682C273.972 38.0653 273.854 37.4545 273.854 36.7358C273.854 36.0085 273.974 35.3949 274.212 34.8949C274.454 34.392 274.779 34.0128 275.188 33.7571C275.597 33.4986 276.053 33.3693 276.556 33.3693C276.939 33.3693 277.255 33.4347 277.502 33.5653C277.749 33.6932 277.945 33.848 278.09 34.0298C278.235 34.2088 278.347 34.3778 278.427 34.5369H278.491V31.2727H280.037V40H278.52V38.9688H278.427C278.347 39.1278 278.232 39.2969 278.081 39.4759C277.931 39.652 277.732 39.8026 277.485 39.9276C277.238 40.0526 276.927 40.1151 276.552 40.1151ZM276.982 38.8494C277.309 38.8494 277.587 38.7614 277.817 38.5852C278.047 38.4062 278.222 38.1577 278.341 37.8395C278.461 37.5213 278.52 37.1506 278.52 36.7273C278.52 36.304 278.461 35.9361 278.341 35.6236C278.225 35.3111 278.052 35.0682 277.822 34.8949C277.594 34.7216 277.314 34.6349 276.982 34.6349C276.638 34.6349 276.351 34.7244 276.121 34.9034C275.891 35.0824 275.718 35.3295 275.601 35.6449C275.485 35.9602 275.427 36.321 275.427 36.7273C275.427 37.1364 275.485 37.5014 275.601 37.8224C275.721 38.1406 275.895 38.392 276.126 38.5767C276.358 38.7585 276.644 38.8494 276.982 38.8494ZM281.681 40V33.4545H283.224V40H281.681ZM282.457 32.5256C282.213 32.5256 282.002 32.4446 281.826 32.2827C281.65 32.1179 281.562 31.9205 281.562 31.6903C281.562 31.4574 281.65 31.2599 281.826 31.098C282.002 30.9332 282.213 30.8509 282.457 30.8509C282.704 30.8509 282.914 30.9332 283.088 31.098C283.264 31.2599 283.352 31.4574 283.352 31.6903C283.352 31.9205 283.264 32.1179 283.088 32.2827C282.914 32.4446 282.704 32.5256 282.457 32.5256ZM287.665 40.1278C287.012 40.1278 286.451 39.9844 285.982 39.6974C285.516 39.4105 285.157 39.0142 284.904 38.5085C284.654 38 284.529 37.4148 284.529 36.7528C284.529 36.0881 284.657 35.5014 284.912 34.9929C285.168 34.4815 285.529 34.0838 285.995 33.7997C286.464 33.5128 287.018 33.3693 287.657 33.3693C288.188 33.3693 288.658 33.4673 289.067 33.6634C289.479 33.8565 289.807 34.1307 290.052 34.4858C290.296 34.8381 290.435 35.25 290.469 35.7216H288.995C288.935 35.4062 288.793 35.1435 288.569 34.9332C288.347 34.7202 288.05 34.6136 287.678 34.6136C287.363 34.6136 287.086 34.6989 286.847 34.8693C286.608 35.0369 286.422 35.2784 286.289 35.5938C286.158 35.9091 286.093 36.2869 286.093 36.7273C286.093 37.1733 286.158 37.5568 286.289 37.8778C286.42 38.196 286.603 38.4418 286.839 38.6151C287.077 38.7855 287.357 38.8707 287.678 38.8707C287.905 38.8707 288.108 38.8281 288.287 38.7429C288.469 38.6548 288.621 38.5284 288.743 38.3636C288.866 38.1989 288.949 37.9986 288.995 37.7628H290.469C290.432 38.2259 290.296 38.6364 290.06 38.9943C289.824 39.3494 289.503 39.6278 289.097 39.8295C288.691 40.0284 288.214 40.1278 287.665 40.1278ZM295.004 33.4545V34.6477H291.242V33.4545H295.004ZM292.171 31.8864H293.713V38.0312C293.713 38.2386 293.744 38.3977 293.807 38.5085C293.872 38.6165 293.958 38.6903 294.063 38.7301C294.168 38.7699 294.284 38.7898 294.412 38.7898C294.509 38.7898 294.597 38.7827 294.676 38.7685C294.759 38.7543 294.821 38.7415 294.864 38.7301L295.124 39.9361C295.041 39.9645 294.923 39.9957 294.77 40.0298C294.619 40.0639 294.435 40.0838 294.216 40.0895C293.83 40.1009 293.482 40.0426 293.172 39.9148C292.862 39.7841 292.617 39.5824 292.435 39.3097C292.256 39.0369 292.168 38.696 292.171 38.2869V31.8864ZM299.079 40.1278C298.44 40.1278 297.886 39.9872 297.417 39.706C296.949 39.4247 296.585 39.0312 296.327 38.5256C296.071 38.0199 295.943 37.429 295.943 36.7528C295.943 36.0767 296.071 35.4844 296.327 34.9759C296.585 34.4673 296.949 34.0724 297.417 33.7912C297.886 33.5099 298.44 33.3693 299.079 33.3693C299.719 33.3693 300.273 33.5099 300.741 33.7912C301.21 34.0724 301.572 34.4673 301.828 34.9759C302.086 35.4844 302.216 36.0767 302.216 36.7528C302.216 37.429 302.086 38.0199 301.828 38.5256C301.572 39.0312 301.21 39.4247 300.741 39.706C300.273 39.9872 299.719 40.1278 299.079 40.1278ZM299.088 38.892C299.434 38.892 299.724 38.7969 299.957 38.6065C300.19 38.4134 300.363 38.1548 300.477 37.831C300.594 37.5071 300.652 37.1463 300.652 36.7486C300.652 36.348 300.594 35.9858 300.477 35.6619C300.363 35.3352 300.19 35.0753 299.957 34.8821C299.724 34.6889 299.434 34.5923 299.088 34.5923C298.733 34.5923 298.437 34.6889 298.202 34.8821C297.969 35.0753 297.794 35.3352 297.677 35.6619C297.564 35.9858 297.507 36.348 297.507 36.7486C297.507 37.1463 297.564 37.5071 297.677 37.831C297.794 38.1548 297.969 38.4134 298.202 38.6065C298.437 38.7969 298.733 38.892 299.088 38.892ZM303.525 40V33.4545H305.021V34.5455H305.089C305.208 34.1676 305.413 33.8764 305.703 33.6719C305.995 33.4645 306.329 33.3608 306.704 33.3608C306.789 33.3608 306.884 33.3651 306.99 33.3736C307.097 33.3793 307.187 33.3892 307.258 33.4034V34.8224C307.193 34.7997 307.089 34.7798 306.947 34.7628C306.808 34.7429 306.673 34.733 306.542 34.733C306.261 34.733 306.008 34.794 305.784 34.9162C305.562 35.0355 305.387 35.2017 305.259 35.4148C305.132 35.6278 305.068 35.8736 305.068 36.152V40H303.525ZM314.115 40.1278C313.475 40.1278 312.921 39.9872 312.453 39.706C311.984 39.4247 311.62 39.0312 311.362 38.5256C311.106 38.0199 310.978 37.429 310.978 36.7528C310.978 36.0767 311.106 35.4844 311.362 34.9759C311.62 34.4673 311.984 34.0724 312.453 33.7912C312.921 33.5099 313.475 33.3693 314.115 33.3693C314.754 33.3693 315.308 33.5099 315.776 33.7912C316.245 34.0724 316.607 34.4673 316.863 34.9759C317.122 35.4844 317.251 36.0767 317.251 36.7528C317.251 37.429 317.122 38.0199 316.863 38.5256C316.607 39.0312 316.245 39.4247 315.776 39.706C315.308 39.9872 314.754 40.1278 314.115 40.1278ZM314.123 38.892C314.47 38.892 314.759 38.7969 314.992 38.6065C315.225 38.4134 315.399 38.1548 315.512 37.831C315.629 37.5071 315.687 37.1463 315.687 36.7486C315.687 36.348 315.629 35.9858 315.512 35.6619C315.399 35.3352 315.225 35.0753 314.992 34.8821C314.759 34.6889 314.47 34.5923 314.123 34.5923C313.768 34.5923 313.472 34.6889 313.237 34.8821C313.004 35.0753 312.829 35.3352 312.713 35.6619C312.599 35.9858 312.542 36.348 312.542 36.7486C312.542 37.1463 312.599 37.5071 312.713 37.831C312.829 38.1548 313.004 38.4134 313.237 38.6065C313.472 38.7969 313.768 38.892 314.123 38.892ZM321.876 33.4545V34.6477H318.006V33.4545H321.876ZM318.974 40V32.8366C318.974 32.3963 319.064 32.0298 319.246 31.7372C319.431 31.4446 319.678 31.2259 319.988 31.081C320.297 30.9361 320.641 30.8636 321.019 30.8636C321.286 30.8636 321.523 30.8849 321.731 30.9276C321.938 30.9702 322.091 31.0085 322.191 31.0426L321.884 32.2358C321.819 32.2159 321.736 32.196 321.637 32.1761C321.537 32.1534 321.427 32.142 321.305 32.142C321.018 32.142 320.814 32.2116 320.695 32.3509C320.579 32.4872 320.52 32.6832 320.52 32.9389V40H318.974ZM329.329 33.4545V34.6477H325.566V33.4545H329.329ZM326.495 31.8864H328.037V38.0312C328.037 38.2386 328.069 38.3977 328.131 38.5085C328.197 38.6165 328.282 38.6903 328.387 38.7301C328.492 38.7699 328.608 38.7898 328.736 38.7898C328.833 38.7898 328.921 38.7827 329.001 38.7685C329.083 38.7543 329.145 38.7415 329.188 38.7301L329.448 39.9361C329.366 39.9645 329.248 39.9957 329.094 40.0298C328.944 40.0639 328.759 40.0838 328.54 40.0895C328.154 40.1009 327.806 40.0426 327.496 39.9148C327.187 39.7841 326.941 39.5824 326.759 39.3097C326.58 39.0369 326.492 38.696 326.495 38.2869V31.8864ZM332.302 36.1648V40H330.759V31.2727H332.268V34.5668H332.345C332.498 34.1974 332.735 33.9062 333.056 33.6932C333.38 33.4773 333.792 33.3693 334.292 33.3693C334.747 33.3693 335.143 33.4645 335.481 33.6548C335.819 33.8452 336.08 34.1236 336.265 34.4901C336.453 34.8565 336.546 35.304 336.546 35.8324V40H335.004V36.071C335.004 35.6307 334.89 35.2884 334.663 35.044C334.438 34.7969 334.123 34.6733 333.717 34.6733C333.444 34.6733 333.2 34.733 332.984 34.8523C332.771 34.9687 332.603 35.1378 332.481 35.3594C332.362 35.581 332.302 35.8494 332.302 36.1648ZM341.017 40.1278C340.36 40.1278 339.794 39.9915 339.316 39.7188C338.842 39.4432 338.477 39.054 338.221 38.5511C337.965 38.0455 337.838 37.4503 337.838 36.7656C337.838 36.0923 337.965 35.5014 338.221 34.9929C338.48 34.4815 338.84 34.0838 339.303 33.7997C339.767 33.5128 340.311 33.3693 340.936 33.3693C341.339 33.3693 341.72 33.4347 342.078 33.5653C342.438 33.6932 342.757 33.892 343.032 34.1619C343.311 34.4318 343.529 34.7756 343.688 35.1932C343.847 35.608 343.927 36.1023 343.927 36.6761V37.1491H338.562V36.1094H342.448C342.445 35.8139 342.382 35.5511 342.257 35.321C342.132 35.0881 341.957 34.9048 341.732 34.7713C341.511 34.6378 341.252 34.571 340.957 34.571C340.642 34.571 340.365 34.6477 340.126 34.8011C339.887 34.9517 339.701 35.1506 339.568 35.3977C339.437 35.642 339.37 35.9105 339.367 36.2031V37.1108C339.367 37.4915 339.437 37.8182 339.576 38.0909C339.715 38.3608 339.91 38.5682 340.16 38.7131C340.41 38.8551 340.703 38.9261 341.038 38.9261C341.262 38.9261 341.465 38.8949 341.647 38.8324C341.829 38.767 341.987 38.6719 342.12 38.5469C342.254 38.4219 342.355 38.267 342.423 38.0824L343.863 38.2443C343.772 38.625 343.599 38.9574 343.343 39.2415C343.09 39.5227 342.767 39.7415 342.372 39.8977C341.977 40.0511 341.525 40.1278 341.017 40.1278ZM348.277 40V31.2727H349.819V34.5369H349.883C349.963 34.3778 350.075 34.2088 350.22 34.0298C350.365 33.848 350.561 33.6932 350.808 33.5653C351.055 33.4347 351.371 33.3693 351.754 33.3693C352.26 33.3693 352.716 33.4986 353.122 33.7571C353.531 34.0128 353.855 34.392 354.094 34.8949C354.335 35.3949 354.456 36.0085 354.456 36.7358C354.456 37.4545 354.338 38.0653 354.102 38.5682C353.866 39.071 353.545 39.4545 353.139 39.7188C352.733 39.983 352.273 40.1151 351.758 40.1151C351.383 40.1151 351.072 40.0526 350.825 39.9276C350.578 39.8026 350.379 39.652 350.229 39.4759C350.081 39.2969 349.966 39.1278 349.883 38.9688H349.794V40H348.277ZM349.79 36.7273C349.79 37.1506 349.849 37.5213 349.969 37.8395C350.091 38.1577 350.265 38.4062 350.493 38.5852C350.723 38.7614 351.001 38.8494 351.328 38.8494C351.669 38.8494 351.954 38.7585 352.184 38.5767C352.415 38.392 352.588 38.1406 352.704 37.8224C352.824 37.5014 352.883 37.1364 352.883 36.7273C352.883 36.321 352.825 35.9602 352.709 35.6449C352.592 35.3295 352.419 35.0824 352.189 34.9034C351.959 34.7244 351.672 34.6349 351.328 34.6349C350.998 34.6349 350.719 34.7216 350.488 34.8949C350.258 35.0682 350.084 35.3111 349.964 35.6236C349.848 35.9361 349.79 36.304 349.79 36.7273ZM355.767 40V33.4545H357.263V34.5455H357.331C357.45 34.1676 357.655 33.8764 357.945 33.6719C358.237 33.4645 358.571 33.3608 358.946 33.3608C359.031 33.3608 359.127 33.3651 359.232 33.3736C359.34 33.3793 359.429 33.3892 359.5 33.4034V34.8224C359.435 34.7997 359.331 34.7798 359.189 34.7628C359.05 34.7429 358.915 34.733 358.784 34.733C358.503 34.733 358.25 34.794 358.026 34.9162C357.804 35.0355 357.629 35.2017 357.502 35.4148C357.374 35.6278 357.31 35.8736 357.31 36.152V40H355.767ZM362.291 40.1321C361.877 40.1321 361.503 40.0582 361.171 39.9105C360.841 39.7599 360.58 39.5384 360.387 39.2457C360.196 38.9531 360.101 38.5923 360.101 38.1634C360.101 37.794 360.169 37.4886 360.306 37.2472C360.442 37.0057 360.628 36.8125 360.864 36.6676C361.1 36.5227 361.365 36.4134 361.661 36.3395C361.959 36.2628 362.267 36.2074 362.585 36.1733C362.969 36.1335 363.28 36.098 363.519 36.0668C363.757 36.0327 363.931 35.9815 364.039 35.9134C364.149 35.8423 364.205 35.733 364.205 35.5852V35.5597C364.205 35.2386 364.11 34.9901 363.919 34.8139C363.729 34.6378 363.455 34.5497 363.097 34.5497C362.719 34.5497 362.419 34.6321 362.198 34.7969C361.979 34.9616 361.831 35.1562 361.754 35.3807L360.314 35.1761C360.428 34.7784 360.615 34.446 360.877 34.179C361.138 33.9091 361.458 33.7074 361.835 33.5739C362.213 33.4375 362.631 33.3693 363.088 33.3693C363.404 33.3693 363.718 33.4062 364.03 33.4801C364.343 33.554 364.628 33.6761 364.887 33.8466C365.145 34.0142 365.352 34.2429 365.509 34.5327C365.668 34.8224 365.747 35.1847 365.747 35.6193V40H364.264V39.1009H364.213C364.119 39.2827 363.987 39.4531 363.817 39.6122C363.649 39.7685 363.438 39.8949 363.182 39.9915C362.929 40.0852 362.632 40.1321 362.291 40.1321ZM362.692 38.9986C363.002 38.9986 363.27 38.9375 363.497 38.8153C363.725 38.6903 363.899 38.5256 364.021 38.321C364.146 38.1165 364.209 37.8935 364.209 37.652V36.8807C364.161 36.9205 364.078 36.9574 363.962 36.9915C363.848 37.0256 363.72 37.0554 363.578 37.081C363.436 37.1065 363.296 37.1293 363.156 37.1491C363.017 37.169 362.896 37.1861 362.794 37.2003C362.564 37.2315 362.358 37.2827 362.176 37.3537C361.994 37.4247 361.851 37.5241 361.746 37.652C361.641 37.777 361.588 37.9389 361.588 38.1378C361.588 38.4219 361.692 38.6364 361.899 38.7812C362.107 38.9261 362.371 38.9986 362.692 38.9986ZM367.298 40V33.4545H368.841V40H367.298ZM368.074 32.5256C367.83 32.5256 367.619 32.4446 367.443 32.2827C367.267 32.1179 367.179 31.9205 367.179 31.6903C367.179 31.4574 367.267 31.2599 367.443 31.098C367.619 30.9332 367.83 30.8509 368.074 30.8509C368.321 30.8509 368.531 30.9332 368.705 31.098C368.881 31.2599 368.969 31.4574 368.969 31.6903C368.969 31.9205 368.881 32.1179 368.705 32.2827C368.531 32.4446 368.321 32.5256 368.074 32.5256ZM371.97 36.1648V40H370.427V33.4545H371.902V34.5668H371.979C372.129 34.2003 372.369 33.9091 372.699 33.6932C373.031 33.4773 373.442 33.3693 373.93 33.3693C374.382 33.3693 374.775 33.4659 375.111 33.6591C375.449 33.8523 375.71 34.1321 375.895 34.4986C376.082 34.8651 376.175 35.3097 376.172 35.8324V40H374.629V36.071C374.629 35.6335 374.515 35.2912 374.288 35.044C374.064 34.7969 373.753 34.6733 373.355 34.6733C373.085 34.6733 372.845 34.733 372.635 34.8523C372.427 34.9687 372.264 35.1378 372.145 35.3594C372.028 35.581 371.97 35.8494 371.97 36.1648ZM383.145 40.1151C382.631 40.1151 382.171 39.983 381.765 39.7188C381.358 39.4545 381.037 39.071 380.802 38.5682C380.566 38.0653 380.448 37.4545 380.448 36.7358C380.448 36.0085 380.567 35.3949 380.806 34.8949C381.047 34.392 381.373 34.0128 381.782 33.7571C382.191 33.4986 382.647 33.3693 383.15 33.3693C383.533 33.3693 383.849 33.4347 384.096 33.5653C384.343 33.6932 384.539 33.848 384.684 34.0298C384.829 34.2088 384.941 34.3778 385.02 34.5369H385.084V31.2727H386.631V40H385.114V38.9688H385.02C384.941 39.1278 384.826 39.2969 384.675 39.4759C384.525 39.652 384.326 39.8026 384.079 39.9276C383.831 40.0526 383.52 40.1151 383.145 40.1151ZM383.576 38.8494C383.903 38.8494 384.181 38.7614 384.411 38.5852C384.641 38.4062 384.816 38.1577 384.935 37.8395C385.055 37.5213 385.114 37.1506 385.114 36.7273C385.114 36.304 385.055 35.9361 384.935 35.6236C384.819 35.3111 384.645 35.0682 384.415 34.8949C384.188 34.7216 383.908 34.6349 383.576 34.6349C383.232 34.6349 382.945 34.7244 382.715 34.9034C382.485 35.0824 382.312 35.3295 382.195 35.6449C382.079 35.9602 382.02 36.321 382.02 36.7273C382.02 37.1364 382.079 37.5014 382.195 37.8224C382.314 38.1406 382.489 38.392 382.719 38.5767C382.952 38.7585 383.238 38.8494 383.576 38.8494ZM392.447 37.2472V33.4545H393.99V40H392.494V38.8366H392.426C392.278 39.2031 392.035 39.5028 391.697 39.7358C391.362 39.9687 390.948 40.0852 390.457 40.0852C390.028 40.0852 389.649 39.9901 389.319 39.7997C388.992 39.6065 388.737 39.3267 388.552 38.9602C388.367 38.5909 388.275 38.1449 388.275 37.6222V33.4545H389.818V37.3835C389.818 37.7983 389.931 38.1278 390.159 38.3722C390.386 38.6165 390.684 38.7386 391.053 38.7386C391.281 38.7386 391.501 38.6832 391.714 38.5724C391.927 38.4616 392.102 38.2969 392.238 38.0781C392.377 37.8565 392.447 37.5795 392.447 37.2472ZM395.576 40V33.4545H397.072V34.5455H397.14C397.259 34.1676 397.464 33.8764 397.753 33.6719C398.046 33.4645 398.38 33.3608 398.755 33.3608C398.84 33.3608 398.935 33.3651 399.04 33.3736C399.148 33.3793 399.238 33.3892 399.309 33.4034V34.8224C399.243 34.7997 399.14 34.7798 398.998 34.7628C398.858 34.7429 398.724 34.733 398.593 34.733C398.312 34.733 398.059 34.794 397.834 34.9162C397.613 35.0355 397.438 35.2017 397.31 35.4148C397.182 35.6278 397.118 35.8736 397.118 36.152V40H395.576ZM400.334 40V33.4545H401.876V40H400.334ZM401.109 32.5256C400.865 32.5256 400.655 32.4446 400.479 32.2827C400.302 32.1179 400.214 31.9205 400.214 31.6903C400.214 31.4574 400.302 31.2599 400.479 31.098C400.655 30.9332 400.865 30.8509 401.109 30.8509C401.356 30.8509 401.567 30.9332 401.74 31.098C401.916 31.2599 402.004 31.4574 402.004 31.6903C402.004 31.9205 401.916 32.1179 401.74 32.2827C401.567 32.4446 401.356 32.5256 401.109 32.5256ZM405.005 36.1648V40H403.463V33.4545H404.937V34.5668H405.014C405.164 34.2003 405.404 33.9091 405.734 33.6932C406.066 33.4773 406.477 33.3693 406.965 33.3693C407.417 33.3693 407.811 33.4659 408.146 33.6591C408.484 33.8523 408.745 34.1321 408.93 34.4986C409.117 34.8651 409.21 35.3097 409.207 35.8324V40H407.664V36.071C407.664 35.6335 407.551 35.2912 407.323 35.044C407.099 34.7969 406.788 34.6733 406.39 34.6733C406.12 34.6733 405.88 34.733 405.67 34.8523C405.463 34.9687 405.299 35.1378 405.18 35.3594C405.063 35.581 405.005 35.8494 405.005 36.1648ZM413.622 42.5909C413.068 42.5909 412.592 42.5156 412.194 42.3651C411.796 42.2173 411.477 42.0185 411.235 41.7685C410.994 41.5185 410.826 41.2415 410.732 40.9375L412.122 40.6009C412.184 40.7287 412.275 40.8551 412.394 40.9801C412.514 41.108 412.674 41.2131 412.876 41.2955C413.08 41.3807 413.338 41.4233 413.647 41.4233C414.085 41.4233 414.447 41.3168 414.734 41.1037C415.021 40.8935 415.164 40.5469 415.164 40.0639V38.8239H415.088C415.008 38.983 414.892 39.1463 414.738 39.3139C414.588 39.4815 414.387 39.6222 414.137 39.7358C413.89 39.8494 413.579 39.9062 413.204 39.9062C412.701 39.9062 412.245 39.7884 411.836 39.5526C411.43 39.3139 411.106 38.9588 410.865 38.4872C410.626 38.0128 410.507 37.419 410.507 36.706C410.507 35.9872 410.626 35.3807 410.865 34.8864C411.106 34.3892 411.431 34.0128 411.84 33.7571C412.249 33.4986 412.705 33.3693 413.208 33.3693C413.592 33.3693 413.907 33.4347 414.154 33.5653C414.404 33.6932 414.603 33.848 414.751 34.0298C414.899 34.2088 415.011 34.3778 415.088 34.5369H415.173V33.4545H416.694V40.1065C416.694 40.6662 416.561 41.1293 416.294 41.4957C416.026 41.8622 415.661 42.1364 415.198 42.3182C414.735 42.5 414.21 42.5909 413.622 42.5909ZM413.634 38.696C413.961 38.696 414.24 38.6165 414.47 38.4574C414.7 38.2983 414.874 38.0696 414.994 37.7713C415.113 37.473 415.173 37.1151 415.173 36.6974C415.173 36.2855 415.113 35.9247 414.994 35.6151C414.877 35.3054 414.704 35.0653 414.474 34.8949C414.247 34.7216 413.967 34.6349 413.634 34.6349C413.291 34.6349 413.004 34.7244 412.774 34.9034C412.544 35.0824 412.37 35.3281 412.254 35.6406C412.137 35.9503 412.079 36.3026 412.079 36.6974C412.079 37.098 412.137 37.4489 412.254 37.75C412.373 38.0483 412.548 38.2812 412.778 38.4489C413.011 38.6136 413.296 38.696 413.634 38.696ZM423.135 40.1321C422.72 40.1321 422.347 40.0582 422.014 39.9105C421.685 39.7599 421.423 39.5384 421.23 39.2457C421.04 38.9531 420.945 38.5923 420.945 38.1634C420.945 37.794 421.013 37.4886 421.149 37.2472C421.286 37.0057 421.472 36.8125 421.708 36.6676C421.943 36.5227 422.209 36.4134 422.504 36.3395C422.803 36.2628 423.111 36.2074 423.429 36.1733C423.813 36.1335 424.124 36.098 424.362 36.0668C424.601 36.0327 424.774 35.9815 424.882 35.9134C424.993 35.8423 425.048 35.733 425.048 35.5852V35.5597C425.048 35.2386 424.953 34.9901 424.763 34.8139C424.573 34.6378 424.298 34.5497 423.941 34.5497C423.563 34.5497 423.263 34.6321 423.041 34.7969C422.823 34.9616 422.675 35.1562 422.598 35.3807L421.158 35.1761C421.271 34.7784 421.459 34.446 421.72 34.179C421.982 33.9091 422.301 33.7074 422.679 33.5739C423.057 33.4375 423.475 33.3693 423.932 33.3693C424.247 33.3693 424.561 33.4062 424.874 33.4801C425.186 33.554 425.472 33.6761 425.73 33.8466C425.989 34.0142 426.196 34.2429 426.352 34.5327C426.512 34.8224 426.591 35.1847 426.591 35.6193V40H425.108V39.1009H425.057C424.963 39.2827 424.831 39.4531 424.661 39.6122C424.493 39.7685 424.281 39.8949 424.026 39.9915C423.773 40.0852 423.476 40.1321 423.135 40.1321ZM423.536 38.9986C423.845 38.9986 424.114 38.9375 424.341 38.8153C424.568 38.6903 424.743 38.5256 424.865 38.321C424.99 38.1165 425.053 37.8935 425.053 37.652V36.8807C425.004 36.9205 424.922 36.9574 424.806 36.9915C424.692 37.0256 424.564 37.0554 424.422 37.081C424.28 37.1065 424.139 37.1293 424 37.1491C423.861 37.169 423.74 37.1861 423.638 37.2003C423.408 37.2315 423.202 37.2827 423.02 37.3537C422.838 37.4247 422.695 37.5241 422.59 37.652C422.485 37.777 422.432 37.9389 422.432 38.1378C422.432 38.4219 422.536 38.6364 422.743 38.7812C422.95 38.9261 423.215 38.9986 423.536 38.9986ZM429.685 36.1648V40H428.142V33.4545H429.617V34.5668H429.693C429.844 34.2003 430.084 33.9091 430.414 33.6932C430.746 33.4773 431.156 33.3693 431.645 33.3693C432.097 33.3693 432.49 33.4659 432.825 33.6591C433.164 33.8523 433.425 34.1321 433.61 34.4986C433.797 34.8651 433.889 35.3097 433.887 35.8324V40H432.344V36.071C432.344 35.6335 432.23 35.2912 432.003 35.044C431.779 34.7969 431.468 34.6733 431.07 34.6733C430.8 34.6733 430.56 34.733 430.35 34.8523C430.142 34.9687 429.979 35.1378 429.86 35.3594C429.743 35.581 429.685 35.8494 429.685 36.1648ZM438.352 40.1278C437.696 40.1278 437.129 39.9915 436.652 39.7188C436.178 39.4432 435.813 39.054 435.557 38.5511C435.301 38.0455 435.173 37.4503 435.173 36.7656C435.173 36.0923 435.301 35.5014 435.557 34.9929C435.816 34.4815 436.176 34.0838 436.639 33.7997C437.102 33.5128 437.646 33.3693 438.271 33.3693C438.675 33.3693 439.056 33.4347 439.414 33.5653C439.774 33.6932 440.093 33.892 440.368 34.1619C440.646 34.4318 440.865 34.7756 441.024 35.1932C441.183 35.608 441.263 36.1023 441.263 36.6761V37.1491H435.898V36.1094H439.784C439.781 35.8139 439.718 35.5511 439.593 35.321C439.468 35.0881 439.293 34.9048 439.068 34.7713C438.847 34.6378 438.588 34.571 438.293 34.571C437.977 34.571 437.7 34.6477 437.462 34.8011C437.223 34.9517 437.037 35.1506 436.904 35.3977C436.773 35.642 436.706 35.9105 436.703 36.2031V37.1108C436.703 37.4915 436.773 37.8182 436.912 38.0909C437.051 38.3608 437.246 38.5682 437.496 38.7131C437.746 38.8551 438.039 38.9261 438.374 38.9261C438.598 38.9261 438.801 38.8949 438.983 38.8324C439.165 38.767 439.323 38.6719 439.456 38.5469C439.59 38.4219 439.691 38.267 439.759 38.0824L441.199 38.2443C441.108 38.625 440.935 38.9574 440.679 39.2415C440.426 39.5227 440.102 39.7415 439.708 39.8977C439.313 40.0511 438.861 40.1278 438.352 40.1278ZM447.741 35.1847L446.335 35.3381C446.295 35.196 446.226 35.0625 446.126 34.9375C446.03 34.8125 445.899 34.7116 445.734 34.6349C445.569 34.5582 445.368 34.5199 445.129 34.5199C444.808 34.5199 444.538 34.5895 444.319 34.7287C444.104 34.8679 443.997 35.0483 444 35.2699C443.997 35.4602 444.067 35.6151 444.209 35.7344C444.354 35.8537 444.592 35.9517 444.925 36.0284L446.041 36.267C446.66 36.4006 447.121 36.6122 447.422 36.902C447.726 37.1918 447.879 37.571 447.882 38.0398C447.879 38.4517 447.758 38.8153 447.52 39.1307C447.284 39.4432 446.956 39.6875 446.535 39.8636C446.115 40.0398 445.632 40.1278 445.086 40.1278C444.285 40.1278 443.64 39.9602 443.152 39.625C442.663 39.2869 442.372 38.8168 442.278 38.2145L443.782 38.0696C443.851 38.3651 443.996 38.5881 444.217 38.7386C444.439 38.8892 444.727 38.9645 445.082 38.9645C445.449 38.9645 445.743 38.8892 445.964 38.7386C446.189 38.5881 446.301 38.402 446.301 38.1804C446.301 37.9929 446.229 37.8381 446.084 37.7159C445.942 37.5937 445.72 37.5 445.419 37.4347L444.302 37.2003C443.675 37.0696 443.21 36.8494 442.909 36.5398C442.608 36.2273 442.459 35.8324 442.461 35.3551C442.459 34.9517 442.568 34.6023 442.79 34.3068C443.014 34.0085 443.325 33.7784 443.723 33.6165C444.123 33.4517 444.585 33.3693 445.108 33.3693C445.875 33.3693 446.479 33.5327 446.919 33.8594C447.362 34.1861 447.636 34.6278 447.741 35.1847ZM452.422 33.4545V34.6477H448.66V33.4545H452.422ZM449.589 31.8864H451.131V38.0312C451.131 38.2386 451.162 38.3977 451.225 38.5085C451.29 38.6165 451.376 38.6903 451.481 38.7301C451.586 38.7699 451.702 38.7898 451.83 38.7898C451.927 38.7898 452.015 38.7827 452.094 38.7685C452.177 38.7543 452.239 38.7415 452.282 38.7301L452.542 39.9361C452.459 39.9645 452.341 39.9957 452.188 40.0298C452.037 40.0639 451.853 40.0838 451.634 40.0895C451.248 40.1009 450.9 40.0426 450.59 39.9148C450.28 39.7841 450.035 39.5824 449.853 39.3097C449.674 39.0369 449.586 38.696 449.589 38.2869V31.8864ZM455.396 36.1648V40H453.853V31.2727H455.362V34.5668H455.438C455.592 34.1974 455.829 33.9062 456.15 33.6932C456.474 33.4773 456.886 33.3693 457.386 33.3693C457.84 33.3693 458.237 33.4645 458.575 33.6548C458.913 33.8452 459.174 34.1236 459.359 34.4901C459.546 34.8565 459.64 35.304 459.64 35.8324V40H458.097V36.071C458.097 35.6307 457.984 35.2884 457.757 35.044C457.532 34.7969 457.217 34.6733 456.811 34.6733C456.538 34.6733 456.294 34.733 456.078 34.8523C455.865 34.9687 455.697 35.1378 455.575 35.3594C455.455 35.581 455.396 35.8494 455.396 36.1648ZM464.11 40.1278C463.454 40.1278 462.887 39.9915 462.41 39.7188C461.936 39.4432 461.57 39.054 461.315 38.5511C461.059 38.0455 460.931 37.4503 460.931 36.7656C460.931 36.0923 461.059 35.5014 461.315 34.9929C461.573 34.4815 461.934 34.0838 462.397 33.7997C462.86 33.5128 463.404 33.3693 464.029 33.3693C464.433 33.3693 464.813 33.4347 465.171 33.5653C465.532 33.6932 465.85 33.892 466.126 34.1619C466.404 34.4318 466.623 34.7756 466.782 35.1932C466.941 35.608 467.021 36.1023 467.021 36.6761V37.1491H461.656V36.1094H465.542C465.539 35.8139 465.475 35.5511 465.35 35.321C465.225 35.0881 465.051 34.9048 464.826 34.7713C464.605 34.6378 464.346 34.571 464.051 34.571C463.735 34.571 463.458 34.6477 463.22 34.8011C462.981 34.9517 462.795 35.1506 462.661 35.3977C462.531 35.642 462.464 35.9105 462.461 36.2031V37.1108C462.461 37.4915 462.531 37.8182 462.67 38.0909C462.809 38.3608 463.004 38.5682 463.254 38.7131C463.504 38.8551 463.796 38.9261 464.132 38.9261C464.356 38.9261 464.559 38.8949 464.741 38.8324C464.923 38.767 465.08 38.6719 465.214 38.5469C465.347 38.4219 465.448 38.267 465.517 38.0824L466.957 38.2443C466.866 38.625 466.693 38.9574 466.437 39.2415C466.184 39.5227 465.86 39.7415 465.465 39.8977C465.07 40.0511 464.619 40.1278 464.11 40.1278ZM473.499 35.1847L472.093 35.3381C472.053 35.196 471.983 35.0625 471.884 34.9375C471.787 34.8125 471.657 34.7116 471.492 34.6349C471.327 34.5582 471.126 34.5199 470.887 34.5199C470.566 34.5199 470.296 34.5895 470.077 34.7287C469.861 34.8679 469.755 35.0483 469.758 35.2699C469.755 35.4602 469.824 35.6151 469.966 35.7344C470.111 35.8537 470.35 35.9517 470.682 36.0284L471.799 36.267C472.418 36.4006 472.878 36.6122 473.18 36.902C473.483 37.1918 473.637 37.571 473.64 38.0398C473.637 38.4517 473.516 38.8153 473.278 39.1307C473.042 39.4432 472.714 39.6875 472.293 39.8636C471.873 40.0398 471.39 40.1278 470.844 40.1278C470.043 40.1278 469.398 39.9602 468.91 39.625C468.421 39.2869 468.13 38.8168 468.036 38.2145L469.54 38.0696C469.608 38.3651 469.753 38.5881 469.975 38.7386C470.197 38.8892 470.485 38.9645 470.84 38.9645C471.206 38.9645 471.501 38.8892 471.722 38.7386C471.947 38.5881 472.059 38.402 472.059 38.1804C472.059 37.9929 471.986 37.8381 471.841 37.7159C471.699 37.5937 471.478 37.5 471.177 37.4347L470.06 37.2003C469.432 37.0696 468.968 36.8494 468.667 36.5398C468.366 36.2273 468.216 35.8324 468.219 35.3551C468.216 34.9517 468.326 34.6023 468.547 34.3068C468.772 34.0085 469.083 33.7784 469.481 33.6165C469.881 33.4517 470.343 33.3693 470.866 33.3693C471.633 33.3693 472.236 33.5327 472.677 33.8594C473.12 34.1861 473.394 34.6278 473.499 35.1847ZM474.912 40V33.4545H476.454V40H474.912ZM475.687 32.5256C475.443 32.5256 475.233 32.4446 475.057 32.2827C474.881 32.1179 474.792 31.9205 474.792 31.6903C474.792 31.4574 474.881 31.2599 475.057 31.098C475.233 30.9332 475.443 30.8509 475.687 30.8509C475.934 30.8509 476.145 30.9332 476.318 31.098C476.494 31.2599 476.582 31.4574 476.582 31.6903C476.582 31.9205 476.494 32.1179 476.318 32.2827C476.145 32.4446 475.934 32.5256 475.687 32.5256ZM479.924 40.1321C479.509 40.1321 479.136 40.0582 478.803 39.9105C478.474 39.7599 478.213 39.5384 478.019 39.2457C477.829 38.9531 477.734 38.5923 477.734 38.1634C477.734 37.794 477.802 37.4886 477.938 37.2472C478.075 37.0057 478.261 36.8125 478.497 36.6676C478.732 36.5227 478.998 36.4134 479.294 36.3395C479.592 36.2628 479.9 36.2074 480.218 36.1733C480.602 36.1335 480.913 36.098 481.151 36.0668C481.39 36.0327 481.563 35.9815 481.671 35.9134C481.782 35.8423 481.838 35.733 481.838 35.5852V35.5597C481.838 35.2386 481.742 34.9901 481.552 34.8139C481.362 34.6378 481.088 34.5497 480.73 34.5497C480.352 34.5497 480.052 34.6321 479.83 34.7969C479.612 34.9616 479.464 35.1562 479.387 35.3807L477.947 35.1761C478.061 34.7784 478.248 34.446 478.509 34.179C478.771 33.9091 479.09 33.7074 479.468 33.5739C479.846 33.4375 480.264 33.3693 480.721 33.3693C481.036 33.3693 481.35 33.4062 481.663 33.4801C481.975 33.554 482.261 33.6761 482.519 33.8466C482.778 34.0142 482.985 34.2429 483.142 34.5327C483.301 34.8224 483.38 35.1847 483.38 35.6193V40H481.897V39.1009H481.846C481.752 39.2827 481.62 39.4531 481.45 39.6122C481.282 39.7685 481.07 39.8949 480.815 39.9915C480.562 40.0852 480.265 40.1321 479.924 40.1321ZM480.325 38.9986C480.634 38.9986 480.903 38.9375 481.13 38.8153C481.357 38.6903 481.532 38.5256 481.654 38.321C481.779 38.1165 481.842 37.8935 481.842 37.652V36.8807C481.794 36.9205 481.711 36.9574 481.595 36.9915C481.481 37.0256 481.353 37.0554 481.211 37.081C481.069 37.1065 480.928 37.1293 480.789 37.1491C480.65 37.169 480.529 37.1861 480.427 37.2003C480.197 37.2315 479.991 37.2827 479.809 37.3537C479.627 37.4247 479.484 37.5241 479.379 37.652C479.274 37.777 479.221 37.9389 479.221 38.1378C479.221 38.4219 479.325 38.6364 479.532 38.7812C479.74 38.9261 480.004 38.9986 480.325 38.9986ZM186.453 55V46.2727H187.995V49.5369H188.059C188.139 49.3778 188.251 49.2088 188.396 49.0298C188.541 48.848 188.737 48.6932 188.984 48.5653C189.231 48.4347 189.546 48.3693 189.93 48.3693C190.436 48.3693 190.892 48.4986 191.298 48.7571C191.707 49.0128 192.031 49.392 192.269 49.8949C192.511 50.3949 192.632 51.0085 192.632 51.7358C192.632 52.4545 192.514 53.0653 192.278 53.5682C192.042 54.071 191.721 54.4545 191.315 54.7188C190.909 54.983 190.448 55.1151 189.934 55.1151C189.559 55.1151 189.248 55.0526 189.001 54.9276C188.754 54.8026 188.555 54.652 188.404 54.4759C188.257 54.2969 188.142 54.1278 188.059 53.9688H187.97V55H186.453ZM187.965 51.7273C187.965 52.1506 188.025 52.5213 188.144 52.8395C188.267 53.1577 188.441 53.4062 188.669 53.5852C188.899 53.7614 189.177 53.8494 189.504 53.8494C189.845 53.8494 190.13 53.7585 190.36 53.5767C190.59 53.392 190.764 53.1406 190.88 52.8224C190.999 52.5014 191.059 52.1364 191.059 51.7273C191.059 51.321 191.001 50.9602 190.884 50.6449C190.768 50.3295 190.595 50.0824 190.365 49.9034C190.134 49.7244 189.847 49.6349 189.504 49.6349C189.174 49.6349 188.894 49.7216 188.664 49.8949C188.434 50.0682 188.259 50.3111 188.14 50.6236C188.024 50.9361 187.965 51.304 187.965 51.7273ZM195.827 55.1321C195.412 55.1321 195.038 55.0582 194.706 54.9105C194.376 54.7599 194.115 54.5384 193.922 54.2457C193.731 53.9531 193.636 53.5923 193.636 53.1634C193.636 52.794 193.704 52.4886 193.841 52.2472C193.977 52.0057 194.163 51.8125 194.399 51.6676C194.635 51.5227 194.9 51.4134 195.196 51.3395C195.494 51.2628 195.802 51.2074 196.121 51.1733C196.504 51.1335 196.815 51.098 197.054 51.0668C197.292 51.0327 197.466 50.9815 197.574 50.9134C197.684 50.8423 197.74 50.733 197.74 50.5852V50.5597C197.74 50.2386 197.645 49.9901 197.454 49.8139C197.264 49.6378 196.99 49.5497 196.632 49.5497C196.254 49.5497 195.954 49.6321 195.733 49.7969C195.514 49.9616 195.366 50.1562 195.29 50.3807L193.849 50.1761C193.963 49.7784 194.15 49.446 194.412 49.179C194.673 48.9091 194.993 48.7074 195.371 48.5739C195.748 48.4375 196.166 48.3693 196.623 48.3693C196.939 48.3693 197.253 48.4062 197.565 48.4801C197.878 48.554 198.163 48.6761 198.422 48.8466C198.68 49.0142 198.888 49.2429 199.044 49.5327C199.203 49.8224 199.282 50.1847 199.282 50.6193V55H197.8V54.1009H197.748C197.655 54.2827 197.523 54.4531 197.352 54.6122C197.184 54.7685 196.973 54.8949 196.717 54.9915C196.464 55.0852 196.167 55.1321 195.827 55.1321ZM196.227 53.9986C196.537 53.9986 196.805 53.9375 197.032 53.8153C197.26 53.6903 197.434 53.5256 197.557 53.321C197.682 53.1165 197.744 52.8935 197.744 52.652V51.8807C197.696 51.9205 197.613 51.9574 197.497 51.9915C197.383 52.0256 197.256 52.0554 197.113 52.081C196.971 52.1065 196.831 52.1293 196.692 52.1491C196.552 52.169 196.432 52.1861 196.329 52.2003C196.099 52.2315 195.893 52.2827 195.711 52.3537C195.53 52.4247 195.386 52.5241 195.281 52.652C195.176 52.777 195.123 52.9389 195.123 53.1378C195.123 53.4219 195.227 53.6364 195.434 53.7812C195.642 53.9261 195.906 53.9986 196.227 53.9986ZM206.007 50.1847L204.601 50.3381C204.561 50.196 204.491 50.0625 204.392 49.9375C204.295 49.8125 204.165 49.7116 204 49.6349C203.835 49.5582 203.633 49.5199 203.395 49.5199C203.074 49.5199 202.804 49.5895 202.585 49.7287C202.369 49.8679 202.263 50.0483 202.265 50.2699C202.263 50.4602 202.332 50.6151 202.474 50.7344C202.619 50.8537 202.858 50.9517 203.19 51.0284L204.307 51.267C204.926 51.4006 205.386 51.6122 205.687 51.902C205.991 52.1918 206.145 52.571 206.148 53.0398C206.145 53.4517 206.024 53.8153 205.785 54.1307C205.55 54.4432 205.221 54.6875 204.801 54.8636C204.381 55.0398 203.898 55.1278 203.352 55.1278C202.551 55.1278 201.906 54.9602 201.417 54.625C200.929 54.2869 200.638 53.8168 200.544 53.2145L202.048 53.0696C202.116 53.3651 202.261 53.5881 202.483 53.7386C202.704 53.8892 202.993 53.9645 203.348 53.9645C203.714 53.9645 204.008 53.8892 204.23 53.7386C204.454 53.5881 204.567 53.402 204.567 53.1804C204.567 52.9929 204.494 52.8381 204.349 52.7159C204.207 52.5937 203.986 52.5 203.684 52.4347L202.568 52.2003C201.94 52.0696 201.476 51.8494 201.175 51.5398C200.873 51.2273 200.724 50.8324 200.727 50.3551C200.724 49.9517 200.834 49.6023 201.055 49.3068C201.28 49.0085 201.591 48.7784 201.988 48.6165C202.389 48.4517 202.851 48.3693 203.373 48.3693C204.14 48.3693 204.744 48.5327 205.184 48.8594C205.628 49.1861 205.902 49.6278 206.007 50.1847ZM210.317 55.1278C209.661 55.1278 209.094 54.9915 208.617 54.7188C208.143 54.4432 207.778 54.054 207.522 53.5511C207.266 53.0455 207.138 52.4503 207.138 51.7656C207.138 51.0923 207.266 50.5014 207.522 49.9929C207.78 49.4815 208.141 49.0838 208.604 48.7997C209.067 48.5128 209.611 48.3693 210.236 48.3693C210.64 48.3693 211.02 48.4347 211.378 48.5653C211.739 48.6932 212.057 48.892 212.333 49.1619C212.611 49.4318 212.83 49.7756 212.989 50.1932C213.148 50.608 213.228 51.1023 213.228 51.6761V52.1491H207.863V51.1094H211.749C211.746 50.8139 211.682 50.5511 211.557 50.321C211.432 50.0881 211.258 49.9048 211.033 49.7713C210.812 49.6378 210.553 49.571 210.258 49.571C209.942 49.571 209.665 49.6477 209.427 49.8011C209.188 49.9517 209.002 50.1506 208.868 50.3977C208.738 50.642 208.671 50.9105 208.668 51.2031V52.1108C208.668 52.4915 208.738 52.8182 208.877 53.0909C209.016 53.3608 209.211 53.5682 209.461 53.7131C209.711 53.8551 210.003 53.9261 210.339 53.9261C210.563 53.9261 210.766 53.8949 210.948 53.8324C211.13 53.767 211.287 53.6719 211.421 53.5469C211.555 53.4219 211.655 53.267 211.724 53.0824L213.164 53.2443C213.073 53.625 212.9 53.9574 212.644 54.2415C212.391 54.5227 212.067 54.7415 211.672 54.8977C211.278 55.0511 210.826 55.1278 210.317 55.1278ZM216.962 55.1151C216.448 55.1151 215.987 54.983 215.581 54.7188C215.175 54.4545 214.854 54.071 214.618 53.5682C214.382 53.0653 214.264 52.4545 214.264 51.7358C214.264 51.0085 214.384 50.3949 214.622 49.8949C214.864 49.392 215.189 49.0128 215.598 48.7571C216.007 48.4986 216.463 48.3693 216.966 48.3693C217.35 48.3693 217.665 48.4347 217.912 48.5653C218.159 48.6932 218.355 48.848 218.5 49.0298C218.645 49.2088 218.757 49.3778 218.837 49.5369H218.901V46.2727H220.448V55H218.931V53.9688H218.837C218.757 54.1278 218.642 54.2969 218.492 54.4759C218.341 54.652 218.142 54.8026 217.895 54.9276C217.648 55.0526 217.337 55.1151 216.962 55.1151ZM217.392 53.8494C217.719 53.8494 217.997 53.7614 218.227 53.5852C218.458 53.4062 218.632 53.1577 218.752 52.8395C218.871 52.5213 218.931 52.1506 218.931 51.7273C218.931 51.304 218.871 50.9361 218.752 50.6236C218.635 50.3111 218.462 50.0682 218.232 49.8949C218.004 49.7216 217.725 49.6349 217.392 49.6349C217.048 49.6349 216.762 49.7244 216.531 49.9034C216.301 50.0824 216.128 50.3295 216.012 50.6449C215.895 50.9602 215.837 51.321 215.837 51.7273C215.837 52.1364 215.895 52.5014 216.012 52.8224C216.131 53.1406 216.306 53.392 216.536 53.5767C216.769 53.7585 217.054 53.8494 217.392 53.8494ZM227.923 55.1278C227.284 55.1278 226.73 54.9872 226.261 54.706C225.792 54.4247 225.429 54.0312 225.17 53.5256C224.915 53.0199 224.787 52.429 224.787 51.7528C224.787 51.0767 224.915 50.4844 225.17 49.9759C225.429 49.4673 225.792 49.0724 226.261 48.7912C226.73 48.5099 227.284 48.3693 227.923 48.3693C228.562 48.3693 229.116 48.5099 229.585 48.7912C230.054 49.0724 230.416 49.4673 230.672 49.9759C230.93 50.4844 231.059 51.0767 231.059 51.7528C231.059 52.429 230.93 53.0199 230.672 53.5256C230.416 54.0312 230.054 54.4247 229.585 54.706C229.116 54.9872 228.562 55.1278 227.923 55.1278ZM227.932 53.892C228.278 53.892 228.568 53.7969 228.801 53.6065C229.034 53.4134 229.207 53.1548 229.321 52.831C229.437 52.5071 229.496 52.1463 229.496 51.7486C229.496 51.348 229.437 50.9858 229.321 50.6619C229.207 50.3352 229.034 50.0753 228.801 49.8821C228.568 49.6889 228.278 49.5923 227.932 49.5923C227.577 49.5923 227.281 49.6889 227.045 49.8821C226.812 50.0753 226.638 50.3352 226.521 50.6619C226.407 50.9858 226.351 51.348 226.351 51.7486C226.351 52.1463 226.407 52.5071 226.521 52.831C226.638 53.1548 226.812 53.4134 227.045 53.6065C227.281 53.7969 227.577 53.892 227.932 53.892ZM233.911 51.1648V55H232.369V48.4545H233.843V49.5668H233.92C234.07 49.2003 234.311 48.9091 234.64 48.6932C234.972 48.4773 235.383 48.3693 235.872 48.3693C236.323 48.3693 236.717 48.4659 237.052 48.6591C237.39 48.8523 237.651 49.1321 237.836 49.4986C238.024 49.8651 238.116 50.3097 238.113 50.8324V55H236.57V51.071C236.57 50.6335 236.457 50.2912 236.23 50.044C236.005 49.7969 235.694 49.6733 235.296 49.6733C235.026 49.6733 234.786 49.733 234.576 49.8523C234.369 49.9687 234.205 50.1378 234.086 50.3594C233.97 50.581 233.911 50.8494 233.911 51.1648ZM244.2 46.2727V55H242.658V46.2727H244.2ZM248.684 55.1278C248.028 55.1278 247.461 54.9915 246.984 54.7188C246.51 54.4432 246.145 54.054 245.889 53.5511C245.633 53.0455 245.506 52.4503 245.506 51.7656C245.506 51.0923 245.633 50.5014 245.889 49.9929C246.148 49.4815 246.508 49.0838 246.971 48.7997C247.434 48.5128 247.979 48.3693 248.604 48.3693C249.007 48.3693 249.388 48.4347 249.746 48.5653C250.106 48.6932 250.425 48.892 250.7 49.1619C250.979 49.4318 251.197 49.7756 251.356 50.1932C251.515 50.608 251.595 51.1023 251.595 51.6761V52.1491H246.23V51.1094H250.116C250.113 50.8139 250.05 50.5511 249.925 50.321C249.8 50.0881 249.625 49.9048 249.4 49.7713C249.179 49.6378 248.92 49.571 248.625 49.571C248.309 49.571 248.032 49.6477 247.794 49.8011C247.555 49.9517 247.369 50.1506 247.236 50.3977C247.105 50.642 247.038 50.9105 247.035 51.2031V52.1108C247.035 52.4915 247.105 52.8182 247.244 53.0909C247.383 53.3608 247.578 53.5682 247.828 53.7131C248.078 53.8551 248.371 53.9261 248.706 53.9261C248.93 53.9261 249.133 53.8949 249.315 53.8324C249.497 53.767 249.655 53.6719 249.788 53.5469C249.922 53.4219 250.023 53.267 250.091 53.0824L251.531 53.2443C251.44 53.625 251.267 53.9574 251.011 54.2415C250.758 54.5227 250.434 54.7415 250.04 54.8977C249.645 55.0511 249.193 55.1278 248.684 55.1278ZM254.784 55.1321C254.369 55.1321 253.995 55.0582 253.663 54.9105C253.333 54.7599 253.072 54.5384 252.879 54.2457C252.688 53.9531 252.593 53.5923 252.593 53.1634C252.593 52.794 252.661 52.4886 252.798 52.2472C252.934 52.0057 253.12 51.8125 253.356 51.6676C253.592 51.5227 253.857 51.4134 254.153 51.3395C254.451 51.2628 254.759 51.2074 255.078 51.1733C255.461 51.1335 255.772 51.098 256.011 51.0668C256.249 51.0327 256.423 50.9815 256.531 50.9134C256.642 50.8423 256.697 50.733 256.697 50.5852V50.5597C256.697 50.2386 256.602 49.9901 256.411 49.8139C256.221 49.6378 255.947 49.5497 255.589 49.5497C255.211 49.5497 254.911 49.6321 254.69 49.7969C254.471 49.9616 254.323 50.1562 254.247 50.3807L252.806 50.1761C252.92 49.7784 253.107 49.446 253.369 49.179C253.63 48.9091 253.95 48.7074 254.328 48.5739C254.705 48.4375 255.123 48.3693 255.58 48.3693C255.896 48.3693 256.21 48.4062 256.522 48.4801C256.835 48.554 257.12 48.6761 257.379 48.8466C257.637 49.0142 257.845 49.2429 258.001 49.5327C258.16 49.8224 258.24 50.1847 258.24 50.6193V55H256.757V54.1009H256.705C256.612 54.2827 256.48 54.4531 256.309 54.6122C256.142 54.7685 255.93 54.8949 255.674 54.9915C255.421 55.0852 255.124 55.1321 254.784 55.1321ZM255.184 53.9986C255.494 53.9986 255.762 53.9375 255.99 53.8153C256.217 53.6903 256.392 53.5256 256.514 53.321C256.639 53.1165 256.701 52.8935 256.701 52.652V51.8807C256.653 51.9205 256.57 51.9574 256.454 51.9915C256.34 52.0256 256.213 52.0554 256.07 52.081C255.928 52.1065 255.788 52.1293 255.649 52.1491C255.509 52.169 255.389 52.1861 255.286 52.2003C255.056 52.2315 254.85 52.2827 254.669 52.3537C254.487 52.4247 254.343 52.5241 254.238 52.652C254.133 52.777 254.08 52.9389 254.08 53.1378C254.08 53.4219 254.184 53.6364 254.392 53.7812C254.599 53.9261 254.863 53.9986 255.184 53.9986ZM259.791 55V48.4545H261.286V49.5455H261.355C261.474 49.1676 261.678 48.8764 261.968 48.6719C262.261 48.4645 262.595 48.3608 262.97 48.3608C263.055 48.3608 263.15 48.3651 263.255 48.3736C263.363 48.3793 263.453 48.3892 263.524 48.4034V49.8224C263.458 49.7997 263.355 49.7798 263.213 49.7628C263.073 49.7429 262.938 49.733 262.808 49.733C262.526 49.733 262.274 49.794 262.049 49.9162C261.828 50.0355 261.653 50.2017 261.525 50.4148C261.397 50.6278 261.333 50.8736 261.333 51.152V55H259.791ZM266.091 51.1648V55H264.548V48.4545H266.023V49.5668H266.1C266.25 49.2003 266.49 48.9091 266.82 48.6932C267.152 48.4773 267.563 48.3693 268.051 48.3693C268.503 48.3693 268.896 48.4659 269.232 48.6591C269.57 48.8523 269.831 49.1321 270.016 49.4986C270.203 49.8651 270.296 50.3097 270.293 50.8324V55H268.75V51.071C268.75 50.6335 268.637 50.2912 268.409 50.044C268.185 49.7969 267.874 49.6733 267.476 49.6733C267.206 49.6733 266.966 49.733 266.756 49.8523C266.548 49.9687 266.385 50.1378 266.266 50.3594C266.149 50.581 266.091 50.8494 266.091 51.1648ZM271.861 55V48.4545H273.404V55H271.861ZM272.637 47.5256C272.392 47.5256 272.182 47.4446 272.006 47.2827C271.83 47.1179 271.742 46.9205 271.742 46.6903C271.742 46.4574 271.83 46.2599 272.006 46.098C272.182 45.9332 272.392 45.8509 272.637 45.8509C272.884 45.8509 273.094 45.9332 273.267 46.098C273.443 46.2599 273.531 46.4574 273.531 46.6903C273.531 46.9205 273.443 47.1179 273.267 47.2827C273.094 47.4446 272.884 47.5256 272.637 47.5256ZM276.532 51.1648V55H274.99V48.4545H276.464V49.5668H276.541C276.692 49.2003 276.932 48.9091 277.261 48.6932C277.594 48.4773 278.004 48.3693 278.493 48.3693C278.944 48.3693 279.338 48.4659 279.673 48.6591C280.011 48.8523 280.273 49.1321 280.457 49.4986C280.645 49.8651 280.737 50.3097 280.734 50.8324V55H279.192V51.071C279.192 50.6335 279.078 50.2912 278.851 50.044C278.626 49.7969 278.315 49.6733 277.917 49.6733C277.648 49.6733 277.407 49.733 277.197 49.8523C276.99 49.9687 276.827 50.1378 276.707 50.3594C276.591 50.581 276.532 50.8494 276.532 51.1648ZM285.149 57.5909C284.595 57.5909 284.119 57.5156 283.721 57.3651C283.324 57.2173 283.004 57.0185 282.763 56.7685C282.521 56.5185 282.354 56.2415 282.26 55.9375L283.649 55.6009C283.711 55.7287 283.802 55.8551 283.922 55.9801C284.041 56.108 284.202 56.2131 284.403 56.2955C284.608 56.3807 284.865 56.4233 285.175 56.4233C285.612 56.4233 285.974 56.3168 286.261 56.1037C286.548 55.8935 286.692 55.5469 286.692 55.0639V53.8239H286.615C286.535 53.983 286.419 54.1463 286.265 54.3139C286.115 54.4815 285.915 54.6222 285.665 54.7358C285.417 54.8494 285.106 54.9062 284.731 54.9062C284.229 54.9062 283.773 54.7884 283.363 54.5526C282.957 54.3139 282.633 53.9588 282.392 53.4872C282.153 53.0128 282.034 52.419 282.034 51.706C282.034 50.9872 282.153 50.3807 282.392 49.8864C282.633 49.3892 282.959 49.0128 283.368 48.7571C283.777 48.4986 284.233 48.3693 284.736 48.3693C285.119 48.3693 285.434 48.4347 285.682 48.5653C285.932 48.6932 286.131 48.848 286.278 49.0298C286.426 49.2088 286.538 49.3778 286.615 49.5369H286.7V48.4545H288.221V55.1065C288.221 55.6662 288.088 56.1293 287.821 56.4957C287.554 56.8622 287.189 57.1364 286.726 57.3182C286.263 57.5 285.737 57.5909 285.149 57.5909ZM285.162 53.696C285.488 53.696 285.767 53.6165 285.997 53.4574C286.227 53.2983 286.402 53.0696 286.521 52.7713C286.64 52.473 286.7 52.1151 286.7 51.6974C286.7 51.2855 286.64 50.9247 286.521 50.6151C286.405 50.3054 286.231 50.0653 286.001 49.8949C285.774 49.7216 285.494 49.6349 285.162 49.6349C284.818 49.6349 284.531 49.7244 284.301 49.9034C284.071 50.0824 283.898 50.3281 283.781 50.6406C283.665 50.9503 283.606 51.3026 283.606 51.6974C283.606 52.098 283.665 52.4489 283.781 52.75C283.9 53.0483 284.075 53.2812 284.305 53.4489C284.538 53.6136 284.824 53.696 285.162 53.696ZM294.662 55.1321C294.248 55.1321 293.874 55.0582 293.542 54.9105C293.212 54.7599 292.951 54.5384 292.758 54.2457C292.567 53.9531 292.472 53.5923 292.472 53.1634C292.472 52.794 292.54 52.4886 292.677 52.2472C292.813 52.0057 292.999 51.8125 293.235 51.6676C293.471 51.5227 293.736 51.4134 294.032 51.3395C294.33 51.2628 294.638 51.2074 294.956 51.1733C295.34 51.1335 295.651 51.098 295.89 51.0668C296.128 51.0327 296.302 50.9815 296.41 50.9134C296.52 50.8423 296.576 50.733 296.576 50.5852V50.5597C296.576 50.2386 296.481 49.9901 296.29 49.8139C296.1 49.6378 295.826 49.5497 295.468 49.5497C295.09 49.5497 294.79 49.6321 294.569 49.7969C294.35 49.9616 294.202 50.1562 294.126 50.3807L292.685 50.1761C292.799 49.7784 292.986 49.446 293.248 49.179C293.509 48.9091 293.829 48.7074 294.206 48.5739C294.584 48.4375 295.002 48.3693 295.459 48.3693C295.775 48.3693 296.089 48.4062 296.401 48.4801C296.714 48.554 296.999 48.6761 297.258 48.8466C297.516 49.0142 297.724 49.2429 297.88 49.5327C298.039 49.8224 298.118 50.1847 298.118 50.6193V55H296.635V54.1009H296.584C296.491 54.2827 296.358 54.4531 296.188 54.6122C296.02 54.7685 295.809 54.8949 295.553 54.9915C295.3 55.0852 295.003 55.1321 294.662 55.1321ZM295.063 53.9986C295.373 53.9986 295.641 53.9375 295.868 53.8153C296.096 53.6903 296.27 53.5256 296.393 53.321C296.518 53.1165 296.58 52.8935 296.58 52.652V51.8807C296.532 51.9205 296.449 51.9574 296.333 51.9915C296.219 52.0256 296.091 52.0554 295.949 52.081C295.807 52.1065 295.667 52.1293 295.528 52.1491C295.388 52.169 295.268 52.1861 295.165 52.2003C294.935 52.2315 294.729 52.2827 294.547 52.3537C294.366 52.4247 294.222 52.5241 294.117 52.652C294.012 52.777 293.959 52.9389 293.959 53.1378C293.959 53.4219 294.063 53.6364 294.27 53.7812C294.478 53.9261 294.742 53.9986 295.063 53.9986ZM301.212 51.1648V55H299.67V48.4545H301.144V49.5668H301.221C301.371 49.2003 301.611 48.9091 301.941 48.6932C302.273 48.4773 302.684 48.3693 303.172 48.3693C303.624 48.3693 304.018 48.4659 304.353 48.6591C304.691 48.8523 304.952 49.1321 305.137 49.4986C305.324 49.8651 305.417 50.3097 305.414 50.8324V55H303.871V51.071C303.871 50.6335 303.758 50.2912 303.53 50.044C303.306 49.7969 302.995 49.6733 302.597 49.6733C302.327 49.6733 302.087 49.733 301.877 49.8523C301.67 49.9687 301.506 50.1378 301.387 50.3594C301.27 50.581 301.212 50.8494 301.212 51.1648ZM309.411 55.1151C308.897 55.1151 308.437 54.983 308.03 54.7188C307.624 54.4545 307.303 54.071 307.067 53.5682C306.831 53.0653 306.714 52.4545 306.714 51.7358C306.714 51.0085 306.833 50.3949 307.072 49.8949C307.313 49.392 307.638 49.0128 308.047 48.7571C308.456 48.4986 308.912 48.3693 309.415 48.3693C309.799 48.3693 310.114 48.4347 310.361 48.5653C310.608 48.6932 310.805 48.848 310.949 49.0298C311.094 49.2088 311.206 49.3778 311.286 49.5369H311.35V46.2727H312.897V55H311.38V53.9688H311.286C311.206 54.1278 311.091 54.2969 310.941 54.4759C310.79 54.652 310.591 54.8026 310.344 54.9276C310.097 55.0526 309.786 55.1151 309.411 55.1151ZM309.841 53.8494C310.168 53.8494 310.447 53.7614 310.677 53.5852C310.907 53.4062 311.081 53.1577 311.201 52.8395C311.32 52.5213 311.38 52.1506 311.38 51.7273C311.38 51.304 311.32 50.9361 311.201 50.6236C311.084 50.3111 310.911 50.0682 310.681 49.8949C310.454 49.7216 310.174 49.6349 309.841 49.6349C309.498 49.6349 309.211 49.7244 308.981 49.9034C308.751 50.0824 308.577 50.3295 308.461 50.6449C308.344 50.9602 308.286 51.321 308.286 51.7273C308.286 52.1364 308.344 52.5014 308.461 52.8224C308.58 53.1406 308.755 53.392 308.985 53.5767C309.218 53.7585 309.503 53.8494 309.841 53.8494ZM320.372 55.1278C319.719 55.1278 319.158 54.9844 318.689 54.6974C318.223 54.4105 317.864 54.0142 317.611 53.5085C317.361 53 317.236 52.4148 317.236 51.7528C317.236 51.0881 317.364 50.5014 317.619 49.9929C317.875 49.4815 318.236 49.0838 318.702 48.7997C319.171 48.5128 319.725 48.3693 320.364 48.3693C320.895 48.3693 321.365 48.4673 321.774 48.6634C322.186 48.8565 322.514 49.1307 322.759 49.4858C323.003 49.8381 323.142 50.25 323.176 50.7216H321.702C321.642 50.4062 321.5 50.1435 321.276 49.9332C321.054 49.7202 320.757 49.6136 320.385 49.6136C320.07 49.6136 319.793 49.6989 319.554 49.8693C319.316 50.0369 319.129 50.2784 318.996 50.5938C318.865 50.9091 318.8 51.2869 318.8 51.7273C318.8 52.1733 318.865 52.5568 318.996 52.8778C319.127 53.196 319.31 53.4418 319.546 53.6151C319.784 53.7855 320.064 53.8707 320.385 53.8707C320.612 53.8707 320.816 53.8281 320.994 53.7429C321.176 53.6548 321.328 53.5284 321.45 53.3636C321.573 53.1989 321.656 52.9986 321.702 52.7628H323.176C323.139 53.2259 323.003 53.6364 322.767 53.9943C322.531 54.3494 322.21 54.6278 321.804 54.8295C321.398 55.0284 320.921 55.1278 320.372 55.1278ZM327.298 55.1278C326.659 55.1278 326.105 54.9872 325.636 54.706C325.167 54.4247 324.804 54.0312 324.545 53.5256C324.29 53.0199 324.162 52.429 324.162 51.7528C324.162 51.0767 324.29 50.4844 324.545 49.9759C324.804 49.4673 325.167 49.0724 325.636 48.7912C326.105 48.5099 326.659 48.3693 327.298 48.3693C327.937 48.3693 328.491 48.5099 328.96 48.7912C329.429 49.0724 329.791 49.4673 330.047 49.9759C330.305 50.4844 330.434 51.0767 330.434 51.7528C330.434 52.429 330.305 53.0199 330.047 53.5256C329.791 54.0312 329.429 54.4247 328.96 54.706C328.491 54.9872 327.937 55.1278 327.298 55.1278ZM327.307 53.892C327.653 53.892 327.943 53.7969 328.176 53.6065C328.409 53.4134 328.582 53.1548 328.696 52.831C328.812 52.5071 328.871 52.1463 328.871 51.7486C328.871 51.348 328.812 50.9858 328.696 50.6619C328.582 50.3352 328.409 50.0753 328.176 49.8821C327.943 49.6889 327.653 49.5923 327.307 49.5923C326.952 49.5923 326.656 49.6889 326.42 49.8821C326.187 50.0753 326.013 50.3352 325.896 50.6619C325.782 50.9858 325.726 51.348 325.726 51.7486C325.726 52.1463 325.782 52.5071 325.896 52.831C326.013 53.1548 326.187 53.4134 326.42 53.6065C326.656 53.7969 326.952 53.892 327.307 53.892ZM333.286 51.1648V55H331.744V48.4545H333.218V49.5668H333.295C333.445 49.2003 333.686 48.9091 334.015 48.6932C334.347 48.4773 334.758 48.3693 335.247 48.3693C335.698 48.3693 336.092 48.4659 336.427 48.6591C336.765 48.8523 337.026 49.1321 337.211 49.4986C337.399 49.8651 337.491 50.3097 337.488 50.8324V55H335.945V51.071C335.945 50.6335 335.832 50.2912 335.605 50.044C335.38 49.7969 335.069 49.6733 334.671 49.6733C334.401 49.6733 334.161 49.733 333.951 49.8523C333.744 49.9687 333.58 50.1378 333.461 50.3594C333.345 50.581 333.286 50.8494 333.286 51.1648ZM342.325 48.4545V49.6477H338.562V48.4545H342.325ZM339.491 46.8864H341.034V53.0312C341.034 53.2386 341.065 53.3977 341.127 53.5085C341.193 53.6165 341.278 53.6903 341.383 53.7301C341.488 53.7699 341.605 53.7898 341.732 53.7898C341.829 53.7898 341.917 53.7827 341.997 53.7685C342.079 53.7543 342.142 53.7415 342.184 53.7301L342.444 54.9361C342.362 54.9645 342.244 54.9957 342.09 55.0298C341.94 55.0639 341.755 55.0838 341.536 55.0895C341.15 55.1009 340.802 55.0426 340.492 54.9148C340.183 54.7841 339.937 54.5824 339.755 54.3097C339.576 54.0369 339.488 53.696 339.491 53.2869V46.8864ZM343.615 55V48.4545H345.111V49.5455H345.179C345.298 49.1676 345.503 48.8764 345.792 48.6719C346.085 48.4645 346.419 48.3608 346.794 48.3608C346.879 48.3608 346.974 48.3651 347.079 48.3736C347.187 48.3793 347.277 48.3892 347.348 48.4034V49.8224C347.282 49.7997 347.179 49.7798 347.037 49.7628C346.898 49.7429 346.763 49.733 346.632 49.733C346.351 49.733 346.098 49.794 345.873 49.9162C345.652 50.0355 345.477 50.2017 345.349 50.4148C345.221 50.6278 345.157 50.8736 345.157 51.152V55H343.615ZM350.958 55.1278C350.319 55.1278 349.765 54.9872 349.296 54.706C348.828 54.4247 348.464 54.0312 348.205 53.5256C347.95 53.0199 347.822 52.429 347.822 51.7528C347.822 51.0767 347.95 50.4844 348.205 49.9759C348.464 49.4673 348.828 49.0724 349.296 48.7912C349.765 48.5099 350.319 48.3693 350.958 48.3693C351.597 48.3693 352.151 48.5099 352.62 48.7912C353.089 49.0724 353.451 49.4673 353.707 49.9759C353.965 50.4844 354.095 51.0767 354.095 51.7528C354.095 52.429 353.965 53.0199 353.707 53.5256C353.451 54.0312 353.089 54.4247 352.62 54.706C352.151 54.9872 351.597 55.1278 350.958 55.1278ZM350.967 53.892C351.313 53.892 351.603 53.7969 351.836 53.6065C352.069 53.4134 352.242 53.1548 352.356 52.831C352.472 52.5071 352.531 52.1463 352.531 51.7486C352.531 51.348 352.472 50.9858 352.356 50.6619C352.242 50.3352 352.069 50.0753 351.836 49.8821C351.603 49.6889 351.313 49.5923 350.967 49.5923C350.612 49.5923 350.316 49.6889 350.08 49.8821C349.847 50.0753 349.673 50.3352 349.556 50.6619C349.443 50.9858 349.386 51.348 349.386 51.7486C349.386 52.1463 349.443 52.5071 349.556 52.831C349.673 53.1548 349.847 53.4134 350.08 53.6065C350.316 53.7969 350.612 53.892 350.967 53.892ZM356.947 46.2727V55H355.404V46.2727H356.947ZM366.683 50.1847L365.276 50.3381C365.237 50.196 365.167 50.0625 365.068 49.9375C364.971 49.8125 364.84 49.7116 364.676 49.6349C364.511 49.5582 364.309 49.5199 364.07 49.5199C363.749 49.5199 363.48 49.5895 363.261 49.7287C363.045 49.8679 362.938 50.0483 362.941 50.2699C362.938 50.4602 363.008 50.6151 363.15 50.7344C363.295 50.8537 363.534 50.9517 363.866 51.0284L364.982 51.267C365.602 51.4006 366.062 51.6122 366.363 51.902C366.667 52.1918 366.82 52.571 366.823 53.0398C366.82 53.4517 366.7 53.8153 366.461 54.1307C366.225 54.4432 365.897 54.6875 365.477 54.8636C365.056 55.0398 364.573 55.1278 364.028 55.1278C363.227 55.1278 362.582 54.9602 362.093 54.625C361.605 54.2869 361.313 53.8168 361.22 53.2145L362.724 53.0696C362.792 53.3651 362.937 53.5881 363.159 53.7386C363.38 53.8892 363.669 53.9645 364.024 53.9645C364.39 53.9645 364.684 53.8892 364.906 53.7386C365.13 53.5881 365.242 53.402 365.242 53.1804C365.242 52.9929 365.17 52.8381 365.025 52.7159C364.883 52.5937 364.661 52.5 364.36 52.4347L363.244 52.2003C362.616 52.0696 362.151 51.8494 361.85 51.5398C361.549 51.2273 361.4 50.8324 361.403 50.3551C361.4 49.9517 361.509 49.6023 361.731 49.3068C361.955 49.0085 362.267 48.7784 362.664 48.6165C363.065 48.4517 363.526 48.3693 364.049 48.3693C364.816 48.3693 365.42 48.5327 365.86 48.8594C366.303 49.1861 366.578 49.6278 366.683 50.1847ZM371.364 48.4545V49.6477H367.601V48.4545H371.364ZM368.53 46.8864H370.073V53.0312C370.073 53.2386 370.104 53.3977 370.166 53.5085C370.232 53.6165 370.317 53.6903 370.422 53.7301C370.527 53.7699 370.644 53.7898 370.771 53.7898C370.868 53.7898 370.956 53.7827 371.036 53.7685C371.118 53.7543 371.181 53.7415 371.223 53.7301L371.483 54.9361C371.401 54.9645 371.283 54.9957 371.129 55.0298C370.979 55.0639 370.794 55.0838 370.575 55.0895C370.189 55.1009 369.841 55.0426 369.531 54.9148C369.222 54.7841 368.976 54.5824 368.794 54.3097C368.615 54.0369 368.527 53.696 368.53 53.2869V46.8864ZM372.654 55V48.4545H374.15V49.5455H374.218C374.337 49.1676 374.542 48.8764 374.831 48.6719C375.124 48.4645 375.458 48.3608 375.833 48.3608C375.918 48.3608 376.013 48.3651 376.118 48.3736C376.226 48.3793 376.316 48.3892 376.387 48.4034V49.8224C376.322 49.7997 376.218 49.7798 376.076 49.7628C375.937 49.7429 375.802 49.733 375.671 49.733C375.39 49.733 375.137 49.794 374.912 49.9162C374.691 50.0355 374.516 50.2017 374.388 50.4148C374.26 50.6278 374.197 50.8736 374.197 51.152V55H372.654ZM379.178 55.1321C378.763 55.1321 378.39 55.0582 378.057 54.9105C377.728 54.7599 377.466 54.5384 377.273 54.2457C377.083 53.9531 376.988 53.5923 376.988 53.1634C376.988 52.794 377.056 52.4886 377.192 52.2472C377.329 52.0057 377.515 51.8125 377.751 51.6676C377.986 51.5227 378.252 51.4134 378.547 51.3395C378.846 51.2628 379.154 51.2074 379.472 51.1733C379.856 51.1335 380.167 51.098 380.405 51.0668C380.644 51.0327 380.817 50.9815 380.925 50.9134C381.036 50.8423 381.091 50.733 381.091 50.5852V50.5597C381.091 50.2386 380.996 49.9901 380.806 49.8139C380.616 49.6378 380.341 49.5497 379.983 49.5497C379.606 49.5497 379.306 49.6321 379.084 49.7969C378.866 49.9616 378.718 50.1562 378.641 50.3807L377.201 50.1761C377.314 49.7784 377.502 49.446 377.763 49.179C378.025 48.9091 378.344 48.7074 378.722 48.5739C379.1 48.4375 379.518 48.3693 379.975 48.3693C380.29 48.3693 380.604 48.4062 380.917 48.4801C381.229 48.554 381.515 48.6761 381.773 48.8466C382.032 49.0142 382.239 49.2429 382.395 49.5327C382.555 49.8224 382.634 50.1847 382.634 50.6193V55H381.151V54.1009H381.1C381.006 54.2827 380.874 54.4531 380.704 54.6122C380.536 54.7685 380.324 54.8949 380.069 54.9915C379.816 55.0852 379.519 55.1321 379.178 55.1321ZM379.579 53.9986C379.888 53.9986 380.157 53.9375 380.384 53.8153C380.611 53.6903 380.786 53.5256 380.908 53.321C381.033 53.1165 381.096 52.8935 381.096 52.652V51.8807C381.047 51.9205 380.965 51.9574 380.849 51.9915C380.735 52.0256 380.607 52.0554 380.465 52.081C380.323 52.1065 380.182 52.1293 380.043 52.1491C379.904 52.169 379.783 52.1861 379.681 52.2003C379.451 52.2315 379.245 52.2827 379.063 52.3537C378.881 52.4247 378.738 52.5241 378.633 52.652C378.528 52.777 378.475 52.9389 378.475 53.1378C378.475 53.4219 378.579 53.6364 378.786 53.7812C378.993 53.9261 379.258 53.9986 379.579 53.9986ZM387.454 48.4545V49.6477H383.691V48.4545H387.454ZM384.62 46.8864H386.162V53.0312C386.162 53.2386 386.194 53.3977 386.256 53.5085C386.322 53.6165 386.407 53.6903 386.512 53.7301C386.617 53.7699 386.733 53.7898 386.861 53.7898C386.958 53.7898 387.046 53.7827 387.126 53.7685C387.208 53.7543 387.27 53.7415 387.313 53.7301L387.573 54.9361C387.491 54.9645 387.373 54.9957 387.219 55.0298C387.069 55.0639 386.884 55.0838 386.665 55.0895C386.279 55.1009 385.931 55.0426 385.621 54.9148C385.312 54.7841 385.066 54.5824 384.884 54.3097C384.705 54.0369 384.617 53.696 384.62 53.2869V46.8864ZM391.571 55.1278C390.915 55.1278 390.348 54.9915 389.871 54.7188C389.396 54.4432 389.031 54.054 388.776 53.5511C388.52 53.0455 388.392 52.4503 388.392 51.7656C388.392 51.0923 388.52 50.5014 388.776 49.9929C389.034 49.4815 389.395 49.0838 389.858 48.7997C390.321 48.5128 390.865 48.3693 391.49 48.3693C391.894 48.3693 392.274 48.4347 392.632 48.5653C392.993 48.6932 393.311 48.892 393.587 49.1619C393.865 49.4318 394.084 49.7756 394.243 50.1932C394.402 50.608 394.482 51.1023 394.482 51.6761V52.1491H389.117V51.1094H393.003C393 50.8139 392.936 50.5511 392.811 50.321C392.686 50.0881 392.512 49.9048 392.287 49.7713C392.066 49.6378 391.807 49.571 391.512 49.571C391.196 49.571 390.919 49.6477 390.681 49.8011C390.442 49.9517 390.256 50.1506 390.122 50.3977C389.992 50.642 389.925 50.9105 389.922 51.2031V52.1108C389.922 52.4915 389.992 52.8182 390.131 53.0909C390.27 53.3608 390.465 53.5682 390.715 53.7131C390.965 53.8551 391.257 53.9261 391.593 53.9261C391.817 53.9261 392.02 53.8949 392.202 53.8324C392.384 53.767 392.541 53.6719 392.675 53.5469C392.808 53.4219 392.909 53.267 392.977 53.0824L394.418 53.2443C394.327 53.625 394.154 53.9574 393.898 54.2415C393.645 54.5227 393.321 54.7415 392.926 54.8977C392.531 55.0511 392.08 55.1278 391.571 55.1278ZM398.633 57.5909C398.079 57.5909 397.604 57.5156 397.206 57.3651C396.808 57.2173 396.488 57.0185 396.247 56.7685C396.006 56.5185 395.838 56.2415 395.744 55.9375L397.133 55.6009C397.196 55.7287 397.287 55.8551 397.406 55.9801C397.525 56.108 397.686 56.2131 397.888 56.2955C398.092 56.3807 398.349 56.4233 398.659 56.4233C399.096 56.4233 399.459 56.3168 399.746 56.1037C400.032 55.8935 400.176 55.5469 400.176 55.0639V53.8239H400.099C400.02 53.983 399.903 54.1463 399.75 54.3139C399.599 54.4815 399.399 54.6222 399.149 54.7358C398.902 54.8494 398.591 54.9062 398.216 54.9062C397.713 54.9062 397.257 54.7884 396.848 54.5526C396.442 54.3139 396.118 53.9588 395.876 53.4872C395.638 53.0128 395.518 52.419 395.518 51.706C395.518 50.9872 395.638 50.3807 395.876 49.8864C396.118 49.3892 396.443 49.0128 396.852 48.7571C397.261 48.4986 397.717 48.3693 398.22 48.3693C398.604 48.3693 398.919 48.4347 399.166 48.5653C399.416 48.6932 399.615 48.848 399.763 49.0298C399.91 49.2088 400.023 49.3778 400.099 49.5369H400.184V48.4545H401.706V55.1065C401.706 55.6662 401.572 56.1293 401.305 56.4957C401.038 56.8622 400.673 57.1364 400.21 57.3182C399.747 57.5 399.221 57.5909 398.633 57.5909ZM398.646 53.696C398.973 53.696 399.251 53.6165 399.481 53.4574C399.711 53.2983 399.886 53.0696 400.006 52.7713C400.125 52.473 400.184 52.1151 400.184 51.6974C400.184 51.2855 400.125 50.9247 400.006 50.6151C399.889 50.3054 399.716 50.0653 399.486 49.8949C399.258 49.7216 398.979 49.6349 398.646 49.6349C398.302 49.6349 398.015 49.7244 397.785 49.9034C397.555 50.0824 397.382 50.3281 397.265 50.6406C397.149 50.9503 397.091 51.3026 397.091 51.6974C397.091 52.098 397.149 52.4489 397.265 52.75C397.385 53.0483 397.559 53.2812 397.79 53.4489C398.023 53.6136 398.308 53.696 398.646 53.696ZM404.246 57.4545C404.035 57.4545 403.841 57.4375 403.662 57.4034C403.486 57.3722 403.345 57.3352 403.24 57.2926L403.598 56.0909C403.822 56.1563 404.023 56.1875 404.199 56.1847C404.375 56.1818 404.53 56.1264 404.663 56.0185C404.8 55.9134 404.915 55.7372 405.008 55.4901L405.14 55.1364L402.767 48.4545H404.403L405.912 53.3977H405.98L407.493 48.4545H409.133L406.513 55.7926C406.39 56.1392 406.229 56.4361 406.027 56.6832C405.825 56.9332 405.578 57.1236 405.285 57.2543C404.996 57.3878 404.649 57.4545 404.246 57.4545Z" fill="black"/>
<line x1="166.5" y1="68.5" x2="428.5" y2="68.5" stroke="#8839EF"/>
</svg>
